<svg width="162" height="32" viewBox="0 0 162 32" fill="none" xmlns="http://www.w3.org/2000/svg">
<g clip-path="url(#clip0_1_599)">
<path fill-rule="evenodd" clip-rule="evenodd" d="M1.71997 11.4098C11.6979 7.82458 21.6758 4.28263 31.6538 0.697482C34.9366 -0.511965 37.3987 1.30221 36.4484 4.75777L28.7166 29.5083C28.155 31.884 25.7361 32.4455 23.5332 30.5018L20.5096 28.2124L14.8943 23.9794L10.0133 27.3486C10.0133 27.3486 8.02638 28.2988 8.02638 26.0959V18.3641L26.3841 9.63875L15.1103 19.5303L24.8722 26.7006L32.0857 4.23944L5.39151 13.3535L9.4086 15.4269L5.56428 17.241L1.07205 14.8221C-0.78531 13.7855 -0.00780845 12.0577 1.71997 11.4098Z" fill="#4C70F0"/>
<path fill-rule="evenodd" clip-rule="evenodd" d="M14.8531 23.9793L12.6934 25.4911L9.88574 20.1782L14.8531 23.9793Z" fill="#2B3C89"/>
<path fill-rule="evenodd" clip-rule="evenodd" d="M76.0475 18.5844C76.0475 18.8119 76.0475 19.0849 76.002 19.4489H66.0827C66.2647 20.359 66.7197 21.1325 67.4477 21.6785C68.1758 22.2245 69.0858 22.4975 70.1778 22.4975C71.5884 22.4975 72.7259 22.0425 73.5904 21.1325L75.183 22.9525C74.6369 23.635 73.9089 24.1356 73.0444 24.4996C72.1799 24.8636 71.1788 25.0001 70.0868 25.0001C68.6763 25.0001 67.4932 24.7271 66.4012 24.1811C65.3547 23.635 64.5357 22.8615 63.9441 21.8605C63.3526 20.8595 63.0796 19.7674 63.0796 18.4934C63.0796 17.2649 63.3526 16.1728 63.8986 15.1718C64.4447 14.1708 65.2182 13.3973 66.2192 12.8513C67.2202 12.3052 68.3578 12.0322 69.5863 12.0322C70.8148 12.0322 71.9069 12.3052 72.9079 12.8513C73.8634 13.3973 74.6369 14.1708 75.183 15.1263C75.7745 16.1728 76.0475 17.3104 76.0475 18.5844ZM69.6773 14.4438C68.7218 14.4438 67.9482 14.7168 67.2657 15.2628C66.6287 15.8088 66.2192 16.5823 66.0827 17.4924H73.2719C73.1354 16.5823 72.7714 15.8543 72.0889 15.2628C71.4518 14.7168 70.6328 14.4438 69.6773 14.4438Z" fill="#22283B"/>
<path fill-rule="evenodd" clip-rule="evenodd" d="M97.2926 18.5844C97.2926 18.8119 97.2926 19.0849 97.2471 19.4489H87.3278C87.5098 20.359 87.9648 21.1325 88.6928 21.6785C89.4209 22.2245 90.3309 22.4975 91.4229 22.4975C92.8335 22.4975 93.971 22.0425 94.8355 21.1325L96.428 22.9525C95.882 23.635 95.154 24.1356 94.2895 24.4996C93.425 24.8636 92.4239 25.0001 91.3319 25.0001C89.9214 25.0001 88.7383 24.7271 87.6463 24.1811C86.5998 23.635 85.7808 22.8615 85.1893 21.8605C84.5977 20.8595 84.3247 19.7674 84.3247 18.4934C84.3247 17.2649 84.5977 16.1728 85.1437 15.1718C85.6898 14.1708 86.4633 13.3973 87.4643 12.8513C88.4653 12.3052 89.5574 12.0322 90.8314 12.0322C92.0599 12.0322 93.152 12.3052 94.153 12.8513C95.1085 13.3973 95.882 14.1708 96.428 15.1263C97.0196 16.1728 97.2926 17.3104 97.2926 18.5844ZM90.9224 14.4438C89.9669 14.4438 89.1934 14.7168 88.5108 15.2628C87.8738 15.8088 87.4643 16.5823 87.3278 17.4924H94.517C94.3805 16.5823 94.0165 15.8543 93.3795 15.2628C92.697 14.7168 91.8779 14.4438 90.9224 14.4438Z" fill="#22283B"/>
<path fill-rule="evenodd" clip-rule="evenodd" d="M101.571 14.0795C102.436 12.76 103.937 12.0774 106.076 12.0774V14.8075C105.803 14.8075 105.575 14.8075 105.393 14.8075C104.256 14.8075 103.346 15.126 102.709 15.8085C102.072 16.4911 101.753 17.4466 101.753 18.7206V24.8633H98.75V12.2139H101.571V14.0795Z" fill="#22283B"/>
<path fill-rule="evenodd" clip-rule="evenodd" d="M118.086 10.3031C117.54 10.3031 117.085 10.1211 116.721 9.75711C116.357 9.3931 116.175 8.93809 116.175 8.43757C116.175 7.89156 116.357 7.48204 116.721 7.11803C117.085 6.75402 117.54 6.57202 118.086 6.57202C118.632 6.57202 119.087 6.75403 119.451 7.07254C119.815 7.39105 119.997 7.84606 119.997 8.34657C119.997 8.89259 119.815 9.3476 119.451 9.71161C119.087 10.1211 118.632 10.3031 118.086 10.3031Z" fill="#22283B"/>
<path fill-rule="evenodd" clip-rule="evenodd" d="M116.587 12.2146H119.544V24.8639H116.587V12.2146Z" fill="#22283B"/>
<path fill-rule="evenodd" clip-rule="evenodd" d="M145.251 18.5844C145.251 18.8119 145.251 19.0849 145.206 19.4489H135.286C135.468 20.359 135.923 21.1325 136.651 21.6785C137.379 22.2245 138.289 22.4975 139.381 22.4975C140.792 22.4975 141.929 22.0425 142.794 21.1325L144.387 22.9525C143.841 23.635 143.112 24.1356 142.248 24.4996C141.383 24.8636 140.382 25.0001 139.29 25.0001C137.88 25.0001 136.697 24.7271 135.605 24.1811C134.558 23.635 133.739 22.8615 133.148 21.8605C132.556 20.8595 132.283 19.7674 132.283 18.4934C132.283 17.2649 132.556 16.1728 133.102 15.1718C133.648 14.1708 134.422 13.3973 135.423 12.8513C136.424 12.3052 137.516 12.0322 138.79 12.0322C140.018 12.0322 141.11 12.3052 142.111 12.8513C143.067 13.3973 143.841 14.1708 144.387 15.1263C144.978 16.1728 145.251 17.3104 145.251 18.5844ZM138.835 14.4438C137.88 14.4438 137.106 14.7168 136.424 15.2628C135.787 15.8088 135.377 16.5823 135.241 17.4924H142.43C142.293 16.5823 141.929 15.8543 141.292 15.2628C140.61 14.7168 139.791 14.4438 138.835 14.4438Z" fill="#22283B"/>
<path fill-rule="evenodd" clip-rule="evenodd" d="M149.663 14.0795C150.528 12.76 152.029 12.0774 154.168 12.0774V14.8985C153.895 14.853 153.667 14.8075 153.485 14.8075C152.348 14.8075 151.438 15.126 150.801 15.8085C150.164 16.4911 149.845 17.4466 149.845 18.7206V24.8633H146.888V12.2139H149.709V14.0795H149.663Z" fill="#22283B"/>
<path fill-rule="evenodd" clip-rule="evenodd" d="M85.1455 9.52973C85.1 9.52973 82.1879 9.52973 82.0969 9.52973C81.0049 9.62073 80.4134 10.2577 80.4134 11.5773V12.3508H83.826V14.7169H80.5499V24.9091H77.5923V20.4045V14.6714V12.3053V11.9868V11.5318C77.5923 10.1668 78.0018 9.12022 78.7753 8.3012C79.5489 7.52768 80.6864 7.11816 82.0969 7.11816C82.1424 7.11816 85.1 7.11816 85.1455 7.11816V9.52973Z" fill="#22283B"/>
<path fill-rule="evenodd" clip-rule="evenodd" d="M58.2973 19.5397C58.5248 19.4487 58.7523 19.4487 58.9343 19.3577C59.9808 18.9027 60.7998 18.2202 61.3913 17.3102C61.9374 16.4001 62.2559 15.3536 62.2559 14.1706C62.2559 12.942 61.9829 11.8955 61.3913 11.031C60.7998 10.1665 60.0263 9.4839 58.9343 8.98339C57.8877 8.52838 56.6137 8.25537 55.1577 8.25537H48.3325V24.8179H51.4266V10.849H55.0212C56.3862 10.849 57.3872 11.122 58.0698 11.7135C58.7523 12.2595 59.1163 13.0785 59.1163 14.1706C59.1163 15.2171 58.7523 16.0361 58.0698 16.6276C57.3872 17.1737 56.3407 17.4922 55.0212 17.4922H52.9281L58.9343 24.8633H62.6199L58.2973 19.5397Z" fill="#22283B"/>
<path fill-rule="evenodd" clip-rule="evenodd" d="M110.487 14.0795C111.351 12.76 112.853 12.0774 114.991 12.0774V14.8075C114.718 14.8075 114.491 14.8075 114.309 14.8075C113.171 14.8075 112.261 15.126 111.624 15.8085C110.987 16.4911 110.669 17.4466 110.669 18.7206V24.8633H107.711V12.2139H110.532V14.0795H110.487Z" fill="#22283B"/>
<path fill-rule="evenodd" clip-rule="evenodd" d="M155.309 7.61868H154.217V7.11816H156.992V7.61868H155.9V10.3943H155.309V7.61868Z" fill="#22283B"/>
<path fill-rule="evenodd" clip-rule="evenodd" d="M160.722 10.3943L160.676 8.21021L159.63 10.0302H159.357L158.265 8.25569V10.3943H157.719V7.11816H158.219L159.493 9.30223L160.767 7.11816H161.268V10.3943H160.722Z" fill="#22283B"/>
<path fill-rule="evenodd" clip-rule="evenodd" d="M132.057 22.4978V24.8639H121.137V22.9983L128.098 14.5806H121.273V12.2146H131.875V14.0801L124.913 22.4978H132.057Z" fill="#22283B"/>
</g>
<defs>
<clipPath id="clip0_1_599">
<rect width="162" height="32" fill="white"/>
</clipPath>
</defs>
</svg>
