<svg width="18" height="18" viewBox="0 0 18 18" fill="none" xmlns="http://www.w3.org/2000/svg">
<path d="M7.54541 1C6.25085 1 4.98536 1.38388 3.90898 2.1031C2.83259 2.82233 1.99365 3.84458 1.49824 5.0406C1.00284 6.23662 0.873215 7.55269 1.12577 8.82238C1.37833 10.0921 2.00172 11.2584 2.91711 12.1737C3.8325 13.0891 4.99878 13.7125 6.26847 13.9651C7.53815 14.2177 8.85422 14.088 10.0502 13.5926C11.2462 13.0972 12.2685 12.2583 12.9877 11.1819C13.7069 10.1055 14.0908 8.83999 14.0908 7.54543C14.0907 5.80951 13.4011 4.14472 12.1736 2.91723C10.9461 1.68975 9.28133 1.00011 7.54541 1V1Z" stroke="#4C70F0" stroke-width="2" stroke-miterlimit="10"/>
<path d="M12.4287 12.4287L17 17" stroke="#4C70F0" stroke-width="2" stroke-miterlimit="10" stroke-linecap="round"/>
</svg>
