<svg width="19" height="18" viewBox="0 0 19 18" fill="none" xmlns="http://www.w3.org/2000/svg">
<path d="M18.5 9C18.5 13.9705 14.4705 18 9.5 18C4.53 18 0.5 13.9705 0.5 9C0.5 4.03 4.53 0 9.5 0C14.4705 0 18.5 4.03 18.5 9Z" fill="#FFCC4D"/>
<path d="M3.50045 10C3.34845 10 3.19845 9.931 3.09995 9.8C2.93395 9.5795 2.97895 9.266 3.19995 9.1005C3.27145 9.047 4.67545 8.009 6.62795 7.634C5.39045 7.0135 4.01695 7 3.99945 7C3.72345 6.999 3.49995 6.775 3.50045 6.499C3.50045 6.2235 3.72395 6 3.99995 6C4.11045 6 6.72595 6.019 8.35345 7.6465C8.49645 7.7895 8.53945 8.0045 8.46195 8.1915C8.38445 8.3785 8.20195 8.5 7.99995 8.5C5.69345 8.5 3.81845 9.886 3.79995 9.9C3.70995 9.9675 3.60445 10 3.50045 10ZM15.4994 9.9995C15.3954 9.9995 15.2904 9.9675 15.2004 9.9005C15.1814 9.886 13.2949 8.5 10.9999 8.5C10.7979 8.5 10.6149 8.3785 10.5379 8.1915C10.4604 8.0045 10.5034 7.7895 10.6464 7.6465C12.2744 6.019 14.8894 6 14.9999 6C15.2759 6 15.4989 6.2235 15.4994 6.499C15.4999 6.775 15.2764 6.999 15.0009 7C14.9829 7 13.6094 7.0135 12.3719 7.634C14.3244 8.009 15.7284 9.0465 15.7994 9.1005C16.0199 9.266 16.0649 9.5785 15.8999 9.7995C15.8019 9.93 15.6519 9.9995 15.4994 9.9995ZM3.99995 10.6315C3.99995 12.6135 6.29795 15.1315 9.49995 15.1315C12.7019 15.1315 14.9999 12.6315 14.9999 10.6315C14.9999 10.6315 9.83345 12.0095 3.99995 10.6315Z" fill="#66471B"/>
<path d="M9.7725 11.8005L9.227 11.798C7.619 11.761 6.5 11.5 6.5 11.5V14.9805C6.5 16.4805 7.5 17.9805 9.5 17.9805C11.5 17.9805 12.5 16.4805 12.5 14.9805V11.5205C11.539 11.718 10.6065 11.792 9.7725 11.8005Z" fill="#E8596E"/>
<path d="M9.50005 15.9228C9.65055 15.9228 9.77255 15.8008 9.77255 15.6503V11.8033L9.22705 11.8008V15.6503C9.22755 15.8008 9.34955 15.9228 9.50005 15.9228Z" fill="#DD2F45"/>
</svg>
