<svg width="24" height="24" viewBox="0 0 24 24" fill="none" xmlns="http://www.w3.org/2000/svg">
<path d="M12 24C18.6274 24 24 18.6274 24 12C24 5.37258 18.6274 0 12 0C5.37258 0 0 5.37258 0 12C0 18.6274 5.37258 24 12 24Z" fill="#6D7287"/>
<path d="M13.0673 6.79995C14.2006 5.66662 16.0673 5.66662 17.2006 6.79995V6.79995C18.3339 7.93328 18.3339 9.79995 17.2006 10.9333" stroke="white" stroke-width="1.5" stroke-linecap="round" stroke-linejoin="round"/>
<path d="M8.06726 11.8L8.86726 10.9333" stroke="white" stroke-width="1.5" stroke-linecap="round" stroke-linejoin="round"/>
<path d="M11.4671 8.40005L13.0671 6.80005" stroke="white" stroke-width="1.5" stroke-linecap="round" stroke-linejoin="round"/>
<path d="M12.2005 15.9333L13.0672 15.1333" stroke="white" stroke-width="1.5" stroke-linecap="round" stroke-linejoin="round"/>
<path d="M15.6008 12.5333L17.2008 10.9333" stroke="white" stroke-width="1.5" stroke-linecap="round" stroke-linejoin="round"/>
<path d="M10.9339 17.2C9.80053 18.3333 7.93386 18.3333 6.80053 17.2V17.2C5.6672 16.0667 5.6672 14.2 6.80053 13.0667" stroke="white" stroke-width="1.5" stroke-linecap="round" stroke-linejoin="round"/>
<path d="M12.534 15.5999L10.934 17.1999" stroke="white" stroke-width="1.5" stroke-linecap="round" stroke-linejoin="round"/>
<path d="M8.40026 11.4666L6.80026 13.0666" stroke="white" stroke-width="1.5" stroke-linecap="round" stroke-linejoin="round"/>
<path d="M9.93399 14.0667L14.0673 9.93335" stroke="white" stroke-width="1.5" stroke-linecap="round" stroke-linejoin="round"/>
</svg>
