<svg width="24" height="24" viewBox="0 0 24 24" fill="none" xmlns="http://www.w3.org/2000/svg">
<path d="M12 24C18.6274 24 24 18.6274 24 12C24 5.37258 18.6274 0 12 0C5.37258 0 0 5.37258 0 12C0 18.6274 5.37258 24 12 24Z" fill="#4F73D1"/>
<path d="M8.32938 6.63C8.32938 7.40241 7.75521 8.03 6.80233 8.03C5.91054 8.03 5.33636 7.40241 5.33636 6.63C5.33636 5.84551 5.93497 5.24207 6.8512 5.24207C7.75521 5.24207 8.31717 5.84551 8.32938 6.63ZM5.40966 18.1197V9.12827H8.23165V18.1076H5.40966V18.1197Z" fill="white"/>
<path d="M9.93066 11.999C9.93066 10.8766 9.89401 9.94726 9.85736 9.13864H12.3129L12.4472 10.3817H12.4961C12.8626 9.79037 13.7788 8.93347 15.3059 8.93347C17.1628 8.93347 18.5554 10.1645 18.5554 12.8076V18.118H15.7335V13.1335C15.7335 11.9749 15.3303 11.1904 14.3041 11.1904C13.5223 11.1904 13.0581 11.7214 12.8504 12.2404C12.7771 12.4214 12.7526 12.6869 12.7526 12.9404V18.118H9.93066V11.999Z" fill="white"/>
</svg>
