<svg width="18" height="18" viewBox="0 0 18 18" fill="none" xmlns="http://www.w3.org/2000/svg">
<path d="M18 9C18 13.9705 13.9705 18 9 18C4.0295 18 0 13.9705 0 9C0 4.0295 4.0295 0 9 0C13.9705 0 18 4.0295 18 9Z" fill="#FFCC4D"/>
<path d="M8.99996 10.9243C7.51696 10.9243 6.53246 10.7513 5.31546 10.5148C5.03696 10.4618 4.49646 10.5148 4.49646 11.3338C4.49646 12.9713 6.37796 15.0183 8.99996 15.0183C11.622 15.0183 13.5035 12.9713 13.5035 11.3338C13.5035 10.5148 12.9625 10.4613 12.6845 10.5148C11.4675 10.7513 10.4835 10.9243 8.99996 10.9243Z" fill="#664500"/>
<path d="M8.32373 1.64042C7.89423 0.42492 6.56173 -0.21308 5.34573 0.21542C4.60773 0.47542 4.08523 1.07092 3.88173 1.76742C3.28623 1.35292 2.50623 1.21742 1.76923 1.47742C0.554226 1.90642 -0.0847743 3.23992 0.344726 4.45542C0.405726 4.62742 0.486726 4.78692 0.580726 4.93442C1.55623 6.72542 4.37473 7.98442 6.08123 7.99992C7.39973 6.91642 8.80423 4.16742 8.44023 2.16142C8.42123 1.98742 8.38373 1.81242 8.32373 1.64042ZM9.67373 1.64042C10.1032 0.42492 11.4362 -0.21308 12.6517 0.21542C13.3897 0.47542 13.9122 1.07092 14.1162 1.76742C14.7117 1.35292 15.4917 1.21742 16.2287 1.47742C17.4437 1.90642 18.0822 3.23992 17.6537 4.45542C17.5922 4.62742 17.5117 4.78692 17.4172 4.93442C16.4417 6.72542 13.6232 7.98442 11.9162 7.99992C10.5977 6.91642 9.19373 4.16742 9.55773 2.16142C9.57623 1.98742 9.61373 1.81242 9.67373 1.64042Z" fill="#DD2E44"/>
</svg>
