<svg width="24" height="24" viewBox="0 0 24 24" fill="none" xmlns="http://www.w3.org/2000/svg">
<path d="M12 24C18.6274 24 24 18.6274 24 12C24 5.37258 18.6274 0 12 0C5.37258 0 0 5.37258 0 12C0 18.6274 5.37258 24 12 24Z" fill="#0971BD"/>
<path fill-rule="evenodd" clip-rule="evenodd" d="M6.39999 8.58763C6.39999 8.58763 11.2298 11.3265 12.1672 11.3265C13.1498 11.3265 17.9272 8.63995 17.9272 8.63995L17.9349 8.15995C17.9349 7.63003 17.5048 7.19995 16.9734 7.19995H7.36095C6.83007 7.19995 6.39999 7.63003 6.39999 8.15995V8.58763ZM17.9272 10.08C17.9272 10.08 13.1949 12.6465 12.1672 12.6465C11.2298 12.6465 6.40719 10.08 6.40767 10.08L6.39999 15.84C6.39999 16.3699 6.83055 16.8 7.36095 16.8H16.9734C17.5048 16.8 17.9349 16.3699 17.9349 15.84L17.9272 10.08Z" fill="white"/>
</svg>
