<svg width="24" height="24" viewBox="0 0 24 24" fill="none" xmlns="http://www.w3.org/2000/svg">
<path d="M12 24C18.6274 24 24 18.6274 24 12C24 5.37258 18.6274 0 12 0C5.37258 0 0 5.37258 0 12C0 18.6274 5.37258 24 12 24Z" fill="#00B1FF"/>
<path d="M7.42862 16.6208V19.1822L9.82368 17.8206C10.4913 18.013 11.201 18.1169 11.9363 18.1169C15.8778 18.1169 19.0726 15.1356 19.0726 11.4585C19.0726 7.7811 15.8778 4.80005 11.9363 4.80005C7.995 4.80005 4.79999 7.7811 4.79999 11.4585C4.79999 13.5407 5.82443 15.4 7.42862 16.6208Z" fill="white"/>
<path d="M11.1742 9.63477L7.32565 13.7096L10.8282 11.7879L12.6582 13.7096L16.485 9.63477L13.0214 11.5228L11.1742 9.63477Z" fill="#00B1FF"/>
</svg>
