<svg width="1113" height="250" viewBox="0 0 1113 250" fill="none" xmlns="http://www.w3.org/2000/svg">
<path d="M1112 128.552C1026.64 53.3999 966.979 84.4722 963.5 108.001C957.252 149.757 1056.14 196.709 963.5 230.5C797.414 270.788 551.973 163.481 451.091 120.804C358.709 81.7242 184.308 167.328 112.28 146.258C40.2523 125.187 20.7226 139.288 1 163.481" stroke="#BAC4F5" stroke-width="2" stroke-linecap="round" stroke-dasharray="4 4"/>
<path d="M204.829 226.781C216.336 221.658 255.031 204.404 269.597 196.24C271.02 195.454 271.528 193.582 270.698 192.109C267.311 186.078 258.584 171.078 249.827 161.756C248.49 160.351 246.564 159.706 244.729 160.086C233.66 162.138 191.775 170.567 169.516 186.197C167.565 187.575 167.507 190.607 169.419 192.086C176.282 197.244 190.643 209.271 199.972 225.185C200.941 226.896 203.031 227.562 204.829 226.781Z" fill="#E1E0EF"/>
<path d="M169.372 192.029C167.455 190.593 167.513 187.561 169.469 186.139C191.723 170.554 233.649 162.13 244.723 160.034C246.594 159.703 248.484 160.299 249.821 161.704C250.676 162.607 209.303 178.15 197.434 183.887C185.257 189.761 200.913 213.319 204.383 226.936C202.702 227.424 200.909 226.709 199.966 225.133C190.596 209.213 176.23 197.23 169.372 192.029Z" fill="#D3D2E0"/>
<path d="M247.582 163.226C245.092 166.385 242.793 169.7 240.53 173.065C238.309 176.434 236.164 179.857 234.204 183.481C233.725 184.388 233.204 185.29 232.765 186.202L232.066 187.566L231.404 188.978C230.965 189.89 230.598 190.9 230.196 191.861C230.013 192.366 229.871 192.876 229.687 193.381L229.438 194.098C229.504 193.886 229.647 193.728 229.821 193.663C229.909 193.63 230.037 193.603 230.078 193.608L229.708 193.56L228.974 193.421L227.543 193.193L224.638 192.73C222.714 192.438 220.784 192.189 218.855 191.94C211.127 191.032 203.313 190.509 195.531 190.43C187.749 190.352 179.964 190.669 172.221 191.697C179.983 191.949 187.734 192.288 195.42 192.838C196.369 192.917 197.365 192.957 198.309 193.079L201.202 193.276C203.142 193.438 205.04 193.594 206.975 193.8L209.858 194.084L212.742 194.367C214.676 194.573 216.57 194.773 218.499 195.022C220.434 195.227 222.322 195.471 224.251 195.72L227.12 196.133L228.552 196.362L229.25 196.452L229.619 196.5C229.906 196.537 230.281 196.541 230.629 196.41C231.28 196.185 231.807 195.593 232.01 194.914L232.218 194.192C232.356 193.725 232.452 193.253 232.625 192.835C232.981 191.912 233.256 190.978 233.653 190.061L234.229 188.681L234.846 187.307C235.243 186.39 235.682 185.477 236.121 184.565C237.87 180.958 239.742 177.368 241.692 173.831C243.641 170.294 245.632 166.763 247.582 163.226Z" fill="#BFC2CB"/>
<path d="M255.936 190.558C253.191 188.354 250.353 186.226 247.459 184.223C244.525 182.215 241.534 180.332 238.257 178.764L237.255 181.674C240.433 182.657 243.602 184.078 246.719 185.582C249.873 187.133 252.93 188.805 255.936 190.558Z" fill="#BFC2CB"/>
<path d="M207.515 209.728C207.799 206.902 208.289 204.102 208.856 201.356C209.139 199.983 209.464 198.615 209.87 197.258C210.236 195.896 210.678 194.587 211.08 193.274L208.256 192.469C208.045 193.939 207.839 195.366 207.714 196.804C207.59 198.241 207.466 199.679 207.424 201.127C207.299 204.018 207.302 206.881 207.515 209.728Z" fill="#BFC2CB"/>
<path d="M240.396 167.111C240.176 167.32 239.604 167.047 239.486 166.934C237.593 165.123 237.684 164.597 237.684 164.597C236.442 164.488 235.144 163.993 234.6 163.726C234.339 163.609 234.04 163.656 233.948 163.808C233.902 163.884 233.962 164.128 234.114 164.22C234.411 164.431 234.654 164.63 234.836 164.844C235.457 165.532 235.588 166.223 235.828 166.565C236.061 166.935 236.016 167.385 235.151 167.391C234.287 167.396 233.334 165.885 232.834 165.168C232.335 164.45 232.182 163.725 232.182 163.725C232.182 163.725 231.515 164.005 230.703 164.282C229.859 164.58 229.144 164.303 229.144 164.303C229.079 163.828 230.504 163.258 231.199 162.984C231.422 162.89 231.638 162.824 231.638 162.824C229.848 161.958 228.574 160.086 227.75 159.151C227.359 158.717 228.577 158.677 229.454 158.616C230.392 158.541 230.678 158.548 230.974 159.277C231.577 160.68 233.634 162.528 234.48 162.605C235.326 162.681 236.904 162.578 238.551 162.548C240.226 162.525 241.014 163.999 239.624 163.655C238.207 163.305 236.273 163.327 236.273 163.327C237.044 163.358 237.747 163.431 238.349 163.567C240.113 163.91 240.479 165.979 240.649 166.247C240.876 166.644 240.622 166.874 240.396 167.111Z" fill="#E78E00"/>
<path d="M235.812 166.876C235.699 166.995 235.417 166.844 235.183 166.734C234.866 166.605 234.534 166.673 234.436 166.852C234.396 166.901 234.378 166.983 234.338 167.032C234.56 167.197 234.76 167.329 235.006 167.385C235.767 167.586 236.064 167.164 235.904 166.725C235.898 166.752 235.871 166.746 235.865 166.773C235.825 166.822 235.819 166.849 235.812 166.876Z" fill="#CB7D00"/>
<path d="M236.574 163.536C236.976 163.54 237.405 163.551 237.807 163.556C237.335 163.478 236.824 163.448 236.258 163.406C236.258 163.406 238.219 163.39 239.609 163.734C240.752 164.022 240.418 163.083 239.342 162.752C239.226 162.755 239.104 162.785 239.01 162.821C239.286 162.999 239.501 163.191 239.711 163.412C239.29 163.489 238.764 163.398 238.286 163.348C237.412 163.265 236.594 163.195 235.828 163.395C236.035 163.5 236.342 163.541 236.574 163.536Z" fill="#CB7D00"/>
<path d="M230.689 164.339C231.406 164.098 232.013 163.833 232.168 163.782C232.187 163.7 232.172 163.639 232.13 163.572C231.789 163.552 231.49 163.599 231.185 163.674C230.637 163.809 230.109 163.977 229.679 164.225C229.578 164.289 229.198 164.318 229.097 164.381C229.583 164.52 230.189 164.514 230.689 164.339Z" fill="#CB7D00"/>
<path d="M240.466 166.03C240.447 166.112 240.408 166.16 240.416 166.249L240.41 166.276C240.4 166.447 240.211 166.519 239.999 166.442C239.284 166.165 238.504 165.671 238.206 165.46C238.536 165.909 238.879 166.303 239.519 166.909C239.637 167.022 240.208 167.295 240.428 167.086C240.648 166.877 240.908 166.619 240.669 166.277C240.593 166.231 240.523 166.158 240.466 166.03Z" fill="#CB7D00"/>
<path d="M239.871 166.875C239.871 166.875 240.64 167.164 240.801 167.978C240.801 167.978 241.495 167.329 240.274 166.621C240.246 166.615 239.702 166.348 239.871 166.875Z" fill="#B67B00"/>
<path d="M234.909 167.076C234.909 167.076 235.002 167.298 235.364 167.725C235.364 167.725 236.018 167.5 235.267 167.014C235.273 166.987 234.91 166.818 234.909 167.076Z" fill="#B67B00"/>
<path d="M239.719 163.507C239.719 163.507 240.331 163.473 240.731 163.995C240.731 163.995 240.947 163.296 239.875 163.197C239.875 163.197 239.419 163.18 239.719 163.507Z" fill="#B67B00"/>
<path d="M229.69 164.311C229.69 164.311 229.208 164.288 229.154 164.649C229.154 164.649 228.677 164.225 229.442 164.14C229.421 164.107 229.767 164.099 229.69 164.311Z" fill="#B67B00"/>
<path d="M236.049 164.2C235.606 163.869 235.035 163.596 234.433 163.459C234.241 163.416 234.022 163.366 233.864 163.302C233.651 163.225 233.484 163.072 233.265 163.022C233.34 163.327 233.506 163.739 233.663 164.062C233.928 164.669 235.437 165.759 235.437 165.759C235.223 165.308 234.857 164.764 234.116 164.222C233.976 164.076 233.931 163.893 233.977 163.817C234.042 163.659 234.368 163.617 234.629 163.734C234.967 163.897 235.55 164.116 236.222 164.325C236.146 164.279 236.098 164.24 236.049 164.2Z" fill="#DF8800"/>
<path d="M231.181 163.064C231.404 162.97 231.62 162.904 231.62 162.904C229.83 162.038 228.556 160.167 227.732 159.231C227.341 158.797 228.559 158.757 229.436 158.697C229.43 158.724 229.43 158.724 229.396 158.745C229.225 158.994 228.509 158.976 228.611 159.287C228.677 159.503 232.632 161.234 232.479 161.401C232.029 161.99 231.196 162.233 231.614 162.932C231.525 162.94 231.336 163.013 231.181 163.064Z" fill="#DD8700"/>
<path d="M233.293 160.872C233.293 160.872 232.658 161.39 231.801 161.743C231.74 161.757 231.673 161.8 231.584 161.809C231.557 161.802 231.523 161.824 231.523 161.824C231.435 161.832 231.319 161.835 231.204 161.837C231.115 161.846 231.033 161.828 230.918 161.83C229.779 161.774 228.467 161.592 228.467 161.592C225.976 159.502 225.519 158.851 225.101 158.411C225.4 158.105 225.923 157.705 226.691 157.361C226.948 157.247 227.204 157.132 227.475 157.078C227.503 157.084 227.536 157.063 227.536 157.063C227.624 157.055 227.692 157.012 227.78 157.003C227.963 156.958 228.179 156.892 228.356 156.875C229.203 156.693 229.958 156.662 230.421 156.652C231.288 157.654 233.293 160.872 233.293 160.872Z" fill="#2A2D32"/>
<path d="M231.493 161.817C231.405 161.826 231.289 161.829 231.173 161.831C231.085 161.84 231.003 161.821 230.887 161.824C229.983 160.353 228.163 157.839 227.479 157.051C227.506 157.057 227.539 157.036 227.539 157.036C227.695 156.985 227.844 156.961 227.994 156.937C228.706 157.732 230.601 160.291 231.493 161.817Z" fill="#3E4247"/>
<path d="M228.843 157.646C228.682 157.724 228.499 157.769 228.31 157.841C228.276 157.863 228.215 157.878 228.181 157.899C226.748 158.38 225.371 158.615 225.107 158.382C225.107 158.382 225.107 158.382 225.08 158.376C224.94 158.229 225.261 157.957 225.881 157.637C226.271 157.437 226.75 157.229 227.311 157.04L227.345 157.018C227.534 156.946 227.717 156.901 227.906 156.829C228.278 156.712 228.643 156.622 228.969 156.581C229.695 156.428 230.246 156.409 230.385 156.556C230.622 156.782 229.944 157.233 228.843 157.646Z" fill="#1A1C1F"/>
<path d="M165.913 119.584C165.913 119.584 165.394 119.208 167.208 118.439C169.462 117.51 171.559 116.258 173.819 115.302C174.042 115.209 174.231 115.137 174.454 115.043C180.563 112.599 182.782 111.951 189.227 111.453C191.307 111.291 193.334 110.858 195.279 110.148C195.34 110.133 195.374 110.112 195.435 110.097C208.751 105.313 217.205 90.995 217.33 90.822C218.206 89.7538 219.011 88.6123 219.671 87.3514C219.769 87.1722 219.84 86.9867 219.932 86.8349C222.284 82.0429 223.256 76.7367 224.121 71.5215C224.949 66.4705 226.29 60.9314 229.115 56.592C231.183 53.4339 234.694 51.1496 238.303 50.2115C242.095 49.2284 246.089 49.385 249.766 50.5632C252.448 51.4299 254.923 52.8255 257.062 54.6917C259.362 56.7382 260.915 59.5367 261.872 62.4302C262.332 63.8296 262.636 65.2802 262.813 66.7881C263.408 71.5283 262.814 76.6899 262.071 81.2419C262.009 81.5156 261.968 81.823 261.933 82.103C261.89 82.2946 261.868 82.5199 261.824 82.7115C260.887 87.7377 259.278 92.554 258.018 97.4784C257.56 99.2455 257.309 101.117 257.015 102.921C256.968 103.256 257.122 103.723 257.358 103.949C257.379 103.983 257.407 103.989 257.428 104.022C257.477 104.062 257.519 104.129 257.567 104.169C257.616 104.209 257.631 104.27 257.68 104.31C258.721 105.812 258.24 108.696 258.052 115.878C257.896 121.139 257.04 126.443 255.032 131.37C254.586 132.449 254.118 133.495 253.569 134.522C245.636 149.591 227.805 158.676 210.744 157.373C200.587 156.597 190.09 151.6 183.212 144.227C183.185 144.221 183.191 144.194 183.191 144.194C181.669 142.525 180.401 140.626 179.484 138.576C178.739 136.91 177.624 135.478 176.174 134.257C175.839 134.21 163.764 132.626 161.413 132.841C159.034 133.051 159.951 130.524 160.496 129.899C160.496 129.899 155.521 130.643 155.39 128.426C155.186 126.278 158.092 122.216 165.913 119.584Z" fill="#B9C3F4"/>
<g opacity="0.33">
<path opacity="0.33" d="M260.578 64.8198C260.46 65.34 260.437 65.824 260.441 66.3142C260.445 66.8045 260.449 67.2947 260.48 67.7911C260.512 68.2876 260.577 68.7628 260.669 69.2443C260.762 69.7258 260.854 70.2072 261.028 70.7073C261.201 70.1995 261.285 69.7005 261.309 69.2165C261.338 68.7051 261.334 68.2148 261.303 67.7184C261.271 67.222 261.179 66.7405 261.059 66.2529C260.973 65.744 260.819 65.2775 260.578 64.8198Z" fill="#E1E0EF"/>
</g>
<g opacity="0.33">
<path opacity="0.53" d="M253.777 54.4378C254.478 55.0283 255.185 55.5915 255.825 56.197C256.465 56.8025 257.038 57.4504 257.564 58.1742C258.097 58.8706 258.557 59.6368 258.989 60.3967C259.189 60.7873 259.415 61.184 259.608 61.602C259.808 61.9925 259.967 62.4316 260.194 62.8284C260.156 62.3593 260.085 61.9115 259.987 61.4574C259.888 61.0033 259.756 60.5704 259.569 60.1251C259.25 59.2468 258.803 58.4259 258.227 57.6624C257.679 56.905 256.997 56.2323 256.229 55.6841C255.482 55.1695 254.662 54.7246 253.777 54.4378Z" fill="white"/>
</g>
<path d="M190.45 129.029C190.201 131.275 190.296 133.139 190.72 134.444C195.632 149.229 204.648 154.15 207.674 156.677C213.802 156.943 222.064 153.634 224.647 152.521C225.761 152.054 225.87 152.079 226.065 151.979L226.099 151.958C225.413 152.954 224.657 154.509 223.996 156.029C224.179 155.984 224.362 155.939 224.539 155.922C225.176 155.778 225.779 155.656 226.416 155.512C226.444 155.519 226.45 155.491 226.477 155.497L226.505 155.504C226.505 155.504 226.532 155.51 226.538 155.482C227.02 155.39 227.48 155.264 227.968 155.144C228.211 155.084 228.455 155.024 228.672 154.958C229.132 154.832 229.626 154.685 230.092 154.532C246.559 149.311 256.687 134.336 257.798 117.49C257.866 115.03 257.932 113.088 257.911 111.529C257.913 110.119 257.848 109.011 257.727 108.148C257.558 106.988 257.269 106.231 256.759 105.684C256.738 105.651 256.711 105.645 256.717 105.617L256.544 105.492C255.476 109.826 254.169 113.56 252.802 116.675C252.802 116.675 252.802 116.675 252.795 116.702C248.707 126.109 244.107 130.277 244.107 130.277C244.035 130.088 243.935 129.892 243.863 129.703C230.978 99.2964 216.653 92.3956 216.653 92.3956C216.136 93.0268 215.564 93.6456 214.998 94.237C214.772 94.4735 214.518 94.7039 214.292 94.9405C214.219 95.0102 214.139 95.1073 214.066 95.177C213.353 95.9079 212.683 96.7059 211.992 97.4703C211.992 97.4703 211.992 97.4704 211.986 97.4977C210.021 99.8159 207.333 102.661 204.181 105.142C203.001 106.285 199.153 109.673 195.311 110.242C191.809 116.298 191.216 122.093 190.45 129.029Z" fill="#606E9D"/>
<path d="M236.793 71.574C236.625 73.299 234.914 87.8512 235.082 92.9851C235.082 92.9851 234.794 93.9599 235.082 96.9782C235.722 99.7425 221.053 87.9853 220.838 87.7926C220.768 87.7192 220.413 87.3798 219.891 86.8874C222.244 82.0954 223.215 76.7893 224.08 71.574C224.908 66.523 226.249 60.9839 229.075 56.6446C231.116 53.4803 234.654 51.2021 238.263 50.264C242.055 49.2809 247.061 49.0604 251.625 51.3425C248.143 51.8487 240.24 55.2414 237.934 64.463C237.364 66.7448 236.793 71.574 236.793 71.574Z" fill="#9BA5D6"/>
<path d="M237.149 78.3785C233.735 76.7798 232.479 75.6418 232.614 72.9727C235.363 70.4662 238.051 69.1449 242.125 69.2306C245.301 69.79 250.923 73.8046 250.248 75.6123C249.241 78.3119 243.112 80.3492 237.149 78.3785Z" fill="#9BA5D6"/>
<path d="M237.759 77.5555C234.333 76.4136 232.335 73.8439 232.62 72.1299C233.762 68.9913 236.331 65.851 242.326 66.9922C248.321 68.4202 250.605 73.8434 250.034 75.5551C249.181 78.1111 242.612 79.1723 237.759 77.5555Z" fill="white"/>
<path d="M239.186 68.1346C234.075 68.4432 233.658 70.4997 232.335 70.7358C233.439 66.7072 238.076 64.3091 243.183 66.7063C244.324 67.243 248.892 69.8468 250.034 73.8434C248.719 72.8284 246.337 70.0709 244.61 69.561C242.79 69.0236 242.251 67.9496 239.186 68.1346Z" fill="#8F9BD0"/>
<path d="M245.462 70.4608C246.857 71.1243 248.747 73.1261 249.758 74.2424C249.912 74.4126 250.219 75.112 250.572 74.8946C250.685 74.725 250.531 74.3528 250.432 74.1202C250.012 73.1365 248.55 71.6287 246.892 70.4553C245.11 69.1932 242.613 67.7913 240.326 67.5706C238.038 67.3498 236.322 67.4724 234.889 68.1695C233.456 68.8666 231.724 70.7705 231.729 71.3498C231.734 71.9298 231.999 72.4949 232.584 72.2102C233.909 70.3312 234.794 68.8285 237.748 68.4448C240.037 68.1475 243.307 69.0117 245.462 70.4608Z" fill="#1E2133"/>
<path d="M220.437 85.223L250.721 101.467L257.144 101.829L257.478 109.503C257.478 109.503 250.381 129.396 246.878 131.135C243.375 132.875 217.874 95.5222 216.12 94.7507C214.367 93.9792 217.321 90.8492 217.321 90.8492L220.437 85.223Z" fill="#E1E0EF"/>
<path d="M247.839 105.297C247.839 105.297 242.811 109.195 241.836 106.384C241.836 106.384 240.106 110.972 236.945 111.838C236.945 111.838 236.754 109.377 234.123 108.033C231.492 106.688 228.665 104.81 228.665 104.81C228.665 104.81 223.948 101.238 224.229 101.013C224.544 100.768 225.256 96.353 225.256 96.353L237.216 97.0478L244.293 97.7012L252.549 100.896L258.109 103.163L255.12 116.1L248.553 127.939L244.929 129.449L243.431 127.93C243.431 127.93 252.937 117.735 254.358 105.997C254.358 105.997 252.387 107.709 249.125 104.956C249.125 104.956 247.099 120.126 243.46 126.152L243.055 125.398C243.043 125.453 246.962 117.044 247.839 105.297Z" fill="#AEADCB"/>
<path d="M192.922 133.62C193.18 135.146 193.489 136.454 193.874 137.548C196.86 145.967 208.308 154.893 208.308 154.893C212.687 156.145 221.37 152.758 225.329 151.036C226.415 150.562 227.156 150.212 227.318 150.134L227.351 150.112C226.402 151.509 225.259 154.013 224.538 155.922C224.384 156.348 224.237 156.746 224.101 157.09C228.05 156.43 231.883 155.14 235.465 153.303C240.771 150.591 245.998 145.558 249.684 140.723C249.856 140.474 250.049 140.259 250.22 140.01C251.013 138.923 251.758 137.796 252.454 136.63C252.586 136.43 252.69 136.223 252.822 136.023C252.953 135.822 253.058 135.615 253.162 135.409C253.267 135.202 253.371 134.996 253.509 134.768C253.613 134.561 253.718 134.355 253.828 134.121C253.933 133.914 254.037 133.707 254.148 133.473C254.369 133.005 254.584 132.565 254.777 132.091C255.211 131.066 255.623 130.008 255.981 128.938C256.601 127.092 257.111 125.222 257.484 123.321C257.975 120.899 258.296 118.467 258.452 115.999C258.52 113.539 258.558 111.59 258.565 110.037C258.568 108.628 258.502 107.519 258.381 106.657C258.236 105.645 257.989 104.956 257.589 104.434C257.541 104.394 257.526 104.333 257.477 104.293C257.435 104.226 257.386 104.186 257.338 104.147L257.165 104.021C257.034 104.596 256.877 105.165 256.725 105.706C255.548 110.016 254.171 113.676 252.74 116.691C252.74 116.691 252.74 116.691 252.734 116.718C248.826 125.072 244.728 128.806 244.728 128.806C244.656 128.617 244.556 128.422 244.484 128.233C231.599 97.826 217.274 90.9252 217.274 90.9252C217.246 90.919 216.849 91.4045 216.781 91.4468C216.595 91.6348 216.43 91.8564 216.243 92.0444C215.592 92.7603 215.043 93.5284 214.462 94.3177C214.217 94.6364 213.926 95.031 213.601 95.4468C213.118 96.0568 212.561 96.7365 211.93 97.486C211.93 97.486 211.93 97.486 211.924 97.5134C209.96 99.8315 207.272 102.676 204.119 105.157C201.495 107.211 198.546 109.047 195.378 110.2C195.317 110.215 195.284 110.236 195.223 110.251C192.166 118.28 191.915 127.52 192.922 133.62Z" fill="#2A2D32"/>
<path d="M169.63 122.215C160.668 124.041 160.387 123.632 158.322 123.596C156.871 124.793 155.992 126.004 155.586 127.035C159.911 124.589 163.373 124.424 169.63 122.215Z" fill="#606E9D"/>
<path d="M175.563 125.745C175.481 125.726 169.813 126.86 169.725 126.869C168.774 126.999 162.712 128.475 160.383 129.991C160.19 130.206 159.935 130.695 159.824 131.188C162.137 130.504 165.941 128.199 169.637 127.511C171.142 127.219 175.919 125.826 175.563 125.745Z" fill="#606E9D"/>
<path d="M176.063 134.351C175.473 133.267 174.798 132.308 174.098 131.459C171.368 130.553 168.001 132.582 166.927 133.259C171.09 133.685 175.871 134.307 176.063 134.351Z" fill="#606E9D"/>
<path d="M231.241 64.5702C231.107 64.6703 230.947 64.7243 230.748 64.6021C230.486 64.4717 230.559 64.1818 230.62 63.976C230.958 63.0577 234.032 59.8983 236.335 59.1829C237.749 58.7438 239.159 58.8858 240.44 59.0635C241.864 59.2387 244.823 60.4538 243.94 61.7074C243.813 61.8726 243.397 62.3362 242.809 62.0331C240.412 60.7973 238.512 60.993 237.332 61.1813C234.342 61.6573 232.579 63.3089 231.84 64.0077C231.633 64.2033 231.357 64.489 231.241 64.5702Z" fill="#8F9BD0"/>
<path d="M231.18 63.4257C231.046 63.5258 230.886 63.5798 230.687 63.4576C230.426 63.3272 230.499 63.0373 230.56 62.8314C230.898 61.9131 233.971 58.7537 236.275 58.0384C237.689 57.5993 239.099 57.7412 240.379 57.919C241.804 58.0941 244.762 59.3092 243.88 60.5629C243.752 60.728 243.336 61.1917 242.748 60.8886C240.352 59.6527 238.451 59.8485 237.271 60.0367C234.281 60.5128 232.519 62.1643 231.779 62.8631C231.572 63.0587 231.296 63.3445 231.18 63.4257Z" fill="#1E2133"/>
<path d="M256.021 86.3306C255.599 88.5435 253.898 90.0215 252.223 89.6667C250.548 89.3119 249.447 86.9589 249.866 84.774C251.288 77.6164 252.085 81.348 253.76 81.7028C255.435 82.0576 256.442 84.1178 256.021 86.3306Z" fill="#6D78A5"/>
<path d="M257.9 85.9717C258.223 85.3263 258.47 84.8302 257.9 83.1191C257.9 83.1191 256.611 79.5081 253.336 78.5552C252.583 78.2487 251.325 80.5462 250.826 82.5925C250.328 84.6388 250.512 86.5576 251.265 86.8641C252.456 87.3749 253.675 87.8051 254.946 87.6214C256.127 87.4812 257.329 87.1126 257.9 85.9717Z" fill="#F89800"/>
<path d="M257.308 84.3895C257.415 83.8966 257.355 83.3231 257.16 82.8148C257.051 82.5731 256.917 82.3562 256.782 82.1671C256.646 81.9781 256.49 81.786 256.352 81.6249C256.033 81.2965 255.712 80.996 255.341 80.773C254.992 80.5531 254.619 80.358 254.215 80.2714C254.536 80.572 254.857 80.8725 255.156 81.1699C255.456 81.4673 255.755 81.7647 256.055 82.0622C256.331 82.3844 256.628 82.7097 256.858 83.0537C257.086 83.4256 257.222 83.8688 257.308 84.3895Z" fill="#F8C26E"/>
<path d="M252.195 85.4032C253.103 86.7074 254.855 87.5266 255.09 87.6454C253.779 87.8232 252.519 87.3871 251.288 86.8705C250.509 86.5604 250.315 84.64 250.823 82.5952C250.925 82.1863 251.022 81.8331 251.163 81.4864C251.142 81.7375 251.007 82.3183 251.054 82.551C251.054 83.6919 251.288 84.0991 252.195 85.4032Z" fill="#B67B00"/>
<path d="M253.423 81.4985C253.06 81.2076 252.891 80.8149 253.046 80.6214C253.202 80.4278 253.621 80.5066 253.984 80.7975C254.347 81.0883 254.516 81.481 254.361 81.6746C254.206 81.8682 253.786 81.7893 253.423 81.4985Z" fill="#B67B00"/>
<path d="M220.436 85.2242C220.436 85.2242 238.917 93.7285 246.904 96.4592C246.904 96.4592 240.567 101.183 237.161 107.578C237.161 107.578 233.901 102.148 227.295 99.6728C227.295 99.6728 222.225 93.7175 217.286 90.8715C217.32 90.8503 218.117 86.5696 220.436 85.2242Z" fill="#E1E0EF"/>
<path d="M259.674 105.911C258.478 104.201 255.809 103.28 255.809 103.28C255.809 103.28 255.882 103.843 254.113 104.536C251.919 105.075 250.185 103.33 250.185 103.33C248.822 102.992 245.695 104.471 244.218 105.144C242.736 105.844 241.725 105.097 241.975 104.118C242.226 103.138 241.987 99.7454 241.785 98.6058C241.583 97.4662 241.118 92.7844 243.634 93.2394C246.178 93.7005 250.895 98.5399 250.895 98.5399C250.895 98.5399 252.031 97.8473 253.173 97.7607C253.35 97.7432 253.493 97.7468 253.663 97.7566C254.796 97.8405 255.77 98.4931 256.18 98.8449C256.326 98.9642 256.423 99.0438 256.423 99.0438C256.934 99.0733 258.795 97.5951 259.64 96.405C260.485 95.215 260.675 94.8839 261.523 95.9683C261.545 96.0019 261.545 96.0019 261.566 96.0354C261.841 96.472 261.886 97.2882 261.779 98.2712C261.683 99.4583 261.427 100.84 261.2 101.968C261.097 102.549 260.979 103.07 260.941 103.493C260.696 105.337 260.848 107.588 259.674 105.911Z" fill="#2A2D32"/>
<path d="M250.241 101.938C250.241 101.938 245.86 101.205 242.273 104.076C242.273 104.076 246.631 102.502 250.143 102.751L250.241 101.938Z" fill="#373A3F"/>
<path d="M249.826 100.342C249.826 100.342 245.671 100.005 242.034 101.829C242.034 101.829 243.482 99.2501 242.849 97.7251C242.855 97.6977 246.977 98.6891 249.826 100.342Z" fill="#373A3F"/>
<path d="M250.317 99.7041C250.317 99.7041 247.977 97.0729 244.591 94.8666C244.591 94.8666 245.976 94.9789 251.021 98.8849L250.317 99.7041Z" fill="#373A3F"/>
<path d="M255.035 103.395C257.127 98.8604 253.199 98.0282 253.199 98.0282C254.579 97.909 255.819 98.5353 256.249 99.8128C256.568 100.691 256.427 101.695 255.906 102.47C255.505 103.098 255.035 103.395 255.035 103.395Z" fill="#373A3F"/>
<path d="M261.594 96.0418C260.919 97.2418 259.293 99.4639 256.558 99.5926L256.181 98.8451C256.326 98.9644 256.424 99.044 256.424 99.044C256.935 99.0735 258.795 97.5953 259.641 96.4053C260.486 95.2152 260.676 94.8841 261.524 95.9685C261.573 96.0083 261.566 96.0356 261.594 96.0418Z" fill="#373A3F"/>
<path d="M261.218 102.004C259.909 101.938 257.818 101.637 256.044 100.573L256.213 100.209C256.213 100.209 258.425 100.738 261.796 98.3073C261.706 99.467 261.444 100.876 261.218 102.004Z" fill="#373A3F"/>
<path d="M259.999 103.336C259.295 102.888 257.382 102.311 255.936 102.214L255.908 102.466C255.908 102.466 258.917 103.033 260.243 104.168C260.393 103.885 260.276 103.513 259.999 103.336Z" fill="#373A3F"/>
<path d="M232.115 139.654C231.813 139.241 232.308 138.365 233.221 137.696C234.135 137.027 235.12 136.82 235.422 137.233C235.724 137.646 235.229 138.522 234.316 139.191C233.403 139.859 232.417 140.067 232.115 139.654Z" fill="#212326"/>
<path d="M227.865 144.455C227.563 144.042 228.058 143.165 228.971 142.497C229.885 141.828 230.87 141.621 231.172 142.034C231.474 142.446 230.979 143.323 230.066 143.992C229.153 144.66 228.167 144.868 227.865 144.455Z" fill="#212326"/>
<path d="M232.429 139.263C232.127 138.85 232.622 137.974 233.535 137.305C234.448 136.637 235.434 136.429 235.736 136.842C236.038 137.255 235.543 138.132 234.63 138.8C233.717 139.469 232.731 139.676 232.429 139.263Z" fill="#373A3F"/>
<path d="M250.021 110.033C249.659 109.857 249.552 109.329 249.783 108.855C250.014 108.381 250.495 108.14 250.857 108.317C251.219 108.493 251.326 109.021 251.095 109.495C250.864 109.969 250.383 110.21 250.021 110.033Z" fill="#BDBBDC"/>
<path d="M249.186 113.959C248.824 113.782 248.717 113.255 248.948 112.781C249.179 112.307 249.66 112.066 250.023 112.243C250.385 112.419 250.492 112.947 250.261 113.42C250.03 113.894 249.549 114.135 249.186 113.959Z" fill="#BDBBDC"/>
<path d="M228.179 144.06C227.877 143.647 228.372 142.771 229.285 142.102C230.198 141.434 231.184 141.226 231.486 141.639C231.788 142.052 231.293 142.929 230.38 143.597C229.467 144.266 228.481 144.473 228.179 144.06Z" fill="#373A3F"/>
<path d="M257.219 103.922C252.939 121.287 244.77 128.762 244.77 128.762C244.697 128.573 244.453 127.999 244.353 127.804C244.353 127.804 252.517 119.465 256.468 103.55L257.219 103.922Z" fill="#3E4247"/>
<path d="M257.678 98.8132C257.962 98.7048 258.258 98.5416 258.499 98.366C258.768 98.1966 258.988 97.9874 259.235 97.7844C259.455 97.5752 259.654 97.3325 259.859 97.0623C260.031 96.8134 260.181 96.5308 260.304 96.2421C260.105 96.4848 259.906 96.7276 259.686 96.9368C259.494 97.1522 259.267 97.3887 259.047 97.5979C258.607 98.0163 258.146 98.4011 257.678 98.8132Z" fill="#575C63"/>
<path d="M253.404 98.6218C253.778 98.8791 254.118 99.1575 254.418 99.4846C254.557 99.6313 254.684 99.8328 254.784 100.028C254.884 100.223 254.95 100.44 255.016 100.656C255.038 100.431 255.039 100.172 254.973 99.9558C254.907 99.7393 254.786 99.5105 254.626 99.3301C254.465 99.1498 254.271 98.9907 254.064 98.8863C253.843 98.721 253.63 98.644 253.404 98.6218Z" fill="#575C63"/>
<path d="M241.713 76.2841C240.633 75.6783 240.248 74.3113 240.854 73.2309C241.46 72.1506 242.827 71.7659 243.907 72.3717C244.987 72.9775 245.372 74.3445 244.766 75.4248C244.161 76.5052 242.794 76.8899 241.713 76.2841Z" fill="#1E2133"/>
<path d="M240.455 75.641C240.07 75.4249 239.932 74.9372 240.148 74.5518C240.365 74.1664 240.852 74.0291 241.238 74.2453C241.623 74.4614 241.76 74.949 241.544 75.3345C241.328 75.7199 240.84 75.8571 240.455 75.641Z" fill="white"/>
<path d="M243.987 73.1166C243.738 72.9772 243.65 72.6626 243.789 72.4139C243.928 72.1653 244.243 72.0767 244.492 72.2162C244.74 72.3556 244.829 72.6702 244.689 72.9188C244.55 73.1675 244.235 73.256 243.987 73.1166Z" fill="white"/>
<path d="M226.143 152.255L239.046 141.42L244.765 128.755L244.125 127.258L237.883 140.58L227.376 150.116C227.112 150.517 226.87 150.951 226.594 151.407C226.444 151.689 226.293 151.972 226.143 152.255Z" fill="#3E4247"/>
<path d="M213.653 95.3715C213.93 95.5493 214.233 95.7332 214.503 95.9383C216.942 97.4982 219.954 99.4471 222.586 102.95C228.391 110.742 229.739 117.495 230.045 120.845L230.065 121.138L234.375 124.474L230.889 125.124L237.678 140.765L238.959 140.192L232.867 126.176L237.675 125.279L231.383 120.4C231.018 116.806 229.524 109.933 223.67 102.102C220.912 98.3976 217.775 96.3629 215.239 94.7234C214.963 94.5457 214.714 94.3742 214.459 94.23C214.262 94.5885 213.978 94.9557 213.653 95.3715Z" fill="#3E4247"/>
<path d="M239.354 137.777L240.269 138.819C240.309 138.77 244.318 135.304 250.32 133.584L250.997 133.392L250.805 132.715C250.805 132.715 250.446 131.252 251.292 129.17L255.559 129.647L255.957 128.903C256.577 127.057 257.087 125.187 257.46 123.285L254.776 128.146L250.427 127.65L250.206 128.118C249.321 129.99 249.281 131.564 249.354 132.386C243.369 134.283 239.534 137.616 239.354 137.777Z" fill="#3E4247"/>
<path d="M155.66 40.8162C155.475 43.7964 156.59 50.8132 169.39 57.7138C169.39 57.7138 164.589 58.9576 158.007 55.1061C157.372 54.732 156.645 55.4019 156.959 56.0487C158.565 59.3773 162.579 65.6692 171.27 69.1061C171.27 69.1061 164.625 70.997 160.065 69.273C159.453 69.0482 158.86 69.6334 159.098 70.2343C160.201 72.9883 163.69 78.2976 174.203 80.6794C174.203 80.6794 172.369 81.7893 169.547 81.668C168.722 81.6251 168.413 82.7351 169.096 83.149C171.823 84.8319 176.065 86.9442 180.992 87.6862C180.992 87.6862 179.64 89.0782 177.836 89.4178C177.144 89.5489 176.946 90.425 177.514 90.8415C179.805 92.5408 183.566 94.7455 186.872 94.2568C186.872 94.2568 186.831 96.7229 184.38 97.3766C183.642 97.5836 183.577 98.6338 184.298 98.8834C187.058 99.9118 191.817 100.76 198.609 98.7294C204.536 96.9635 209.791 93.2035 214.129 88.9191C215.395 87.6515 216.64 86.3505 217.766 84.9362C218.005 84.6449 218.13 84.4719 218.13 84.4719C218.13 84.4719 217.939 84.4284 217.623 84.2993C213.753 82.703 210.556 79.7912 208.4 76.2229C205.007 70.6186 204.188 63.8131 204.495 57.3776C204.495 57.3776 204.495 57.3776 204.501 57.3502C204.556 56.4705 205.167 54.5365 202.505 53.3289C200.414 52.3947 198.778 56.3127 198.825 59.0288C198.824 59.2876 198.844 59.58 198.858 59.8998C198.961 61.4774 198.096 59.9576 196.759 56.4596C194.186 49.7748 192.126 42.8606 190.23 35.9837C189.564 33.5877 188.931 31.1705 188.332 28.7322C186.366 20.5153 184.668 12.1289 184.099 5.49494C183.971 4.02681 182.079 3.48312 181.228 4.70058C179.828 6.68612 178.372 9.81018 178.369 14.2708C178.369 14.2708 175.204 12.2299 174.011 7.8435C173.633 6.46263 171.782 6.24491 171.095 7.49958C169.334 10.6985 167.627 15.6941 169.76 21.0131C169.642 20.8999 166.121 17.5117 164.75 14.035C164.497 13.3732 163.538 13.4149 163.328 14.087C162.228 17.925 160.955 25.3217 164.812 31.549C164.812 31.549 163.061 31.5266 160.359 26.6833C159.99 26.0241 158.954 26.2786 158.951 27.0551C158.969 31.5493 160.022 40.3653 167.405 45.0026C167.405 45.0026 161.943 44.974 156.868 40.3127C156.444 39.8999 155.687 40.1891 155.66 40.8162Z" fill="#AAB8EA"/>
<path d="M180.963 62.1462L184.733 64.1804L180.575 65.2533C180.393 65.2982 178.098 65.642 175.391 65.1436C174.563 64.9849 173.993 65.9782 174.572 66.5987C176.412 68.5124 178.934 70.4654 182.397 71.8255L186.993 73.6439L182.249 75.0158C182.094 75.067 178.899 75.955 175.499 75.8466C175.042 75.8295 174.857 76.392 175.197 76.6705C178.39 79.0921 189.672 81.7633 189.672 81.7633C189.672 81.7633 188.158 84.126 185.408 85.0859C184.908 85.2604 184.923 85.9547 185.41 86.0938C191.835 88.0964 193.58 88.1462 193.58 88.1462L191.323 90.4844C191.283 90.533 191.137 90.6724 190.889 90.8754C190.354 91.3299 190.476 92.1921 191.102 92.4779C191.755 92.7698 192.415 93.0344 193.072 93.1833C193.729 93.3321 194.356 93.3591 194.886 93.3065L196.848 93.0314L196.561 94.8084C196.558 95.326 196.313 95.9035 195.884 96.5259C195.62 96.9267 195.816 97.4604 196.287 97.5385C197.669 97.7938 199.905 98.2141 200.393 98.0943C201.849 97.7624 203.394 96.7883 204.706 96.0782C207.331 94.6579 209.765 92.9355 211.995 90.9656C213.111 89.9806 214.178 88.9559 215.202 87.864C215.701 87.3149 216.199 86.7658 216.698 86.2168C217.09 85.7586 217.613 85.1001 218.13 84.4689C217.382 84.2131 216.625 83.8689 215.984 83.5222C215.137 83.0711 214.329 82.5715 213.567 81.9959C212.071 80.851 210.706 79.5056 209.583 77.9847C207.463 75.1442 206.067 71.777 205.296 68.321C205.251 68.1381 205.206 67.9552 205.167 67.745C204.564 64.8164 204.283 61.3564 204.495 57.3746C204.55 56.4949 205.161 54.5609 202.499 53.3533C200.408 52.419 198.772 56.3371 198.818 59.0532C198.817 59.312 198.837 59.6044 198.851 59.9242C198.954 61.5018 197.91 59.2504 197.732 58.8935C196.974 57.2827 196.418 55.5448 195.822 53.8555C194.597 50.4981 193.5 47.0834 192.436 43.6475C191.276 39.8732 190.15 36.0778 189.234 32.2436C189.159 31.9388 189.084 31.634 189.01 31.3293C188.779 30.4423 188.569 29.5888 188.338 28.7019L186.881 27.7672C186.805 27.7212 185.575 26.9244 184.382 25.3301C183.498 24.1512 181.639 24.4784 181.316 25.9021C180.867 27.7576 182.789 32.1074 184.001 34.8862C184.21 35.3651 183.654 35.7861 183.259 35.4952C181.389 34.093 178.272 31.7173 176.813 30.4081C176.403 30.0563 175.775 30.2881 175.712 30.8207C175.429 33.7212 174.707 36.7814 177.591 40.3131C177.591 40.3131 181.495 44.6802 181.601 44.8481C181.482 44.735 176.812 43.2451 174.399 41.9502C173.91 41.6954 173.348 42.1438 173.462 42.6588C174.219 45.7951 175.874 49.1634 179.306 51.2937L184.292 54.4382L178.394 54.4261C178.279 54.4286 177.387 54.428 176.018 54.1179C174.923 53.8698 173.551 53.4439 172.056 52.6735C171.436 52.3604 170.736 53.0365 171.084 53.6621C172.499 56.0551 175.27 59.0718 180.963 62.1462Z" fill="#9BA5D6"/>
<path d="M263.657 91.1265C267.736 100.052 266.484 108.375 265.06 113.262C264.662 114.64 264.175 116.026 263.564 117.327C263.505 117.457 263.447 117.588 263.367 117.685C317.811 112.664 319.968 85.866 324.412 72.2223C324.52 71.8725 324.485 71.5192 324.315 71.2506C324.294 71.217 324.273 71.1834 324.252 71.1498C324.231 71.1162 324.209 71.0827 324.188 71.0491C323.943 70.7344 323.517 70.5805 323.137 70.6093C323.109 70.6031 323.048 70.6181 323.015 70.6393C322.987 70.6331 322.954 70.6542 322.926 70.648C322.743 70.693 322.575 70.7988 322.395 70.9595C321.423 71.9481 316.044 75.9968 314.816 76.2079C315.135 74.294 314.095 71.0074 312.663 69.7044C311.996 69.0927 311.3 69.3669 311.157 70.2554C310.664 73.828 305.303 79.5788 305.303 79.5788C305.485 76.7418 302.698 73.2897 301.348 72.0053C300.757 71.4396 299.79 71.7674 299.665 72.5738C298.477 80.1048 292.61 84.5321 292.61 84.5321C293.515 80.535 289.441 77.6834 287.357 77.0963C286.707 76.9201 286.092 77.4717 286.169 78.151C286.651 82.3762 282.293 87.0015 282.293 87.0015C279.896 83.35 276.114 82.6372 274.151 82.5377C273.612 82.502 273.278 83.0883 273.52 83.546C276.73 89.1952 271.351 93.2439 271.351 93.2439C268.989 88.0458 263.37 90.4859 263.37 90.4859C263.457 90.7359 263.557 90.9312 263.657 91.1265Z" fill="#9BA5D6"/>
<path d="M263.653 91.1327C267.733 100.059 266.48 108.381 265.057 113.268C264.658 114.646 264.171 116.032 263.56 117.333C263.502 117.464 263.443 117.594 263.364 117.691C317.807 112.67 319.964 85.8723 324.408 72.2285C324.516 71.8788 324.481 71.5254 324.312 71.2568C324.29 71.2232 324.269 71.1896 324.248 71.1561C324.227 71.1225 324.206 71.0889 324.185 71.0553C323.933 70.7681 323.514 70.5867 323.133 70.6156C323.106 70.6094 323.045 70.6243 323.011 70.6455C322.984 70.6393 322.95 70.6605 322.923 70.6543C322.889 70.6755 322.862 70.6693 322.828 70.6904C319.332 82.563 315.802 102.084 283.403 110.805C277.52 112.379 271.651 108.171 271.271 102.098C270.911 96.5764 269.176 91.1464 263.36 90.5195C263.454 90.7422 263.553 90.9374 263.653 91.1327Z" fill="#8C95C2"/>
<path d="M215.557 160.649C216.058 161.741 216.812 163.495 218.439 164.699L218.513 165.262C218.513 165.262 217.891 166.1 217.791 166.797C217.734 167.302 217.457 168.016 217.619 168.571C217.671 168.727 217.755 168.861 217.901 168.98C217.949 169.02 217.998 169.06 218.053 169.072C218.281 169.21 218.527 169.266 218.78 169.295C218.807 169.301 218.862 169.313 218.895 169.292C219.011 169.289 219.127 169.287 219.215 169.278C219.249 169.257 219.276 169.263 219.31 169.242C219.337 169.248 219.371 169.227 219.371 169.227C219.56 169.155 219.728 169.049 219.786 168.918C219.798 168.863 219.832 168.842 219.844 168.787C219.916 168.343 220.711 167.631 219.997 166.462C219.946 166.306 220.019 166.237 220.169 166.213C220.44 166.159 221.177 165.952 221.426 166.124C221.952 166.473 222.834 167.277 224.133 167.773C224.133 167.773 223.907 167.751 223.902 168.411C223.894 168.698 223.923 169.078 224.003 169.614C223.997 169.642 224.018 169.675 224.012 169.703C224.021 169.791 224.029 169.88 224.066 169.974C224.074 170.062 224.104 170.184 224.134 170.306C224.158 170.456 224.469 170.987 224.834 171.156C224.889 171.168 224.91 171.202 224.971 171.187C225.108 171.218 225.245 171.249 225.388 171.252C225.64 171.281 225.83 171.208 225.858 170.956C225.865 170.67 226.699 167.75 225.147 166.851C224.637 166.563 224.066 166.29 223.509 166.077C223.509 166.077 224.294 166.169 225.283 166.508C225.839 166.72 226.389 166.96 226.908 167.337C228.177 168.344 228.29 166.7 226.488 165.889C226.068 165.707 225.604 165.343 225.175 165.332C223.75 165.268 222.529 165.193 221.796 164.999C220.872 164.76 219.333 162.915 219.278 161.377C219.254 160.594 218.385 160.11 217.286 160.005C216.215 159.906 215.301 160.131 215.557 160.649Z" fill="#F89800"/>
<path d="M217.647 168.575C217.698 168.731 217.783 168.865 217.928 168.984C217.977 169.024 218.026 169.064 218.08 169.076C218.308 169.214 218.554 169.27 218.807 169.299C218.834 169.305 218.889 169.317 218.923 169.296C219.039 169.294 219.154 169.291 219.243 169.282C219.276 169.261 219.304 169.267 219.337 169.246C219.364 169.252 219.398 169.231 219.398 169.231C219.587 169.159 219.755 169.053 219.813 168.922C219.786 168.916 219.752 168.937 219.725 168.931C219.692 168.952 219.631 168.967 219.597 168.988C219.359 169.021 219.144 168.828 218.95 168.669C218.68 168.464 218.235 168.392 217.924 168.494C217.836 168.503 217.741 168.539 217.647 168.575Z" fill="#D88400"/>
<path d="M223.719 166.409C224.178 166.542 224.637 166.675 225.069 166.801C224.601 166.58 224.094 166.149 223.459 166.034C223.459 166.034 225.583 166.313 226.851 167.32C227.905 168.135 228.149 167.183 227.239 166.372C227.108 166.313 226.971 166.282 226.834 166.251C227.004 166.52 227.112 166.804 227.193 167.081C226.686 166.909 226.209 166.599 225.698 166.311C224.836 165.799 223.959 165.859 222.993 165.928C223.181 166.115 223.445 166.347 223.719 166.409Z" fill="#D88400"/>
<path d="M223.907 168.381C223.899 168.668 223.928 169.048 224.008 169.585C224.002 169.612 224.023 169.646 224.017 169.673C224.026 169.761 224.035 169.85 224.071 169.944C224.079 170.032 224.109 170.154 224.139 170.276C224.163 170.426 224.475 170.957 224.839 171.126C224.894 171.138 224.915 171.172 224.976 171.157C225.113 171.188 225.25 171.219 225.393 171.222C225.646 171.251 225.835 171.178 225.863 170.926C225.875 170.871 225.873 170.755 225.877 170.612C225.816 170.627 225.727 170.636 225.66 170.678L225.627 170.7C225.486 170.812 225.231 170.668 225.055 170.426C224.55 169.736 224.121 168.833 223.907 168.381Z" fill="#D88400"/>
<path d="M224.595 170.55C224.595 170.55 225.158 171.368 224.681 171.951C224.681 171.951 225.892 172.196 225.185 170.741C225.185 170.741 224.832 170.143 224.595 170.55Z" fill="#B67B00"/>
<path d="M218.285 168.811C218.285 168.811 217.91 169.705 217.954 170.146C217.954 170.146 219.254 169.491 218.791 168.868C218.791 168.868 218.56 168.614 218.285 168.811Z" fill="#B67B00"/>
<path d="M227.146 167.189C227.146 167.189 227.833 167.46 227.915 168.112C227.915 168.112 228.599 167.634 227.53 167.017C227.53 167.017 227.041 166.762 227.146 167.189Z" fill="#B67B00"/>
<path d="M222.615 166.85C222.367 166.419 221.991 166.046 221.365 165.76C221.153 165.683 220.94 165.606 220.767 165.481C220.566 165.349 220.427 165.202 220.193 165.092C220.125 165.393 219.733 165.851 219.583 166.134C219.315 166.678 220.114 167.981 220.141 167.987C220.289 167.589 220.38 167.063 219.983 166.397C219.932 166.242 220.006 166.172 220.155 166.148C220.426 166.095 221.164 165.887 221.413 166.059C221.738 166.277 222.071 166.582 222.673 166.978C222.679 166.95 222.658 166.917 222.615 166.85Z" fill="#EC9000"/>
<path d="M218.44 164.7C216.813 163.496 216.059 161.743 215.558 160.65C215.301 160.132 216.216 159.907 217.26 160C217.226 160.021 217.226 160.021 217.192 160.042C216.884 160.26 216.569 160.505 216.55 160.846C216.527 161.072 219.983 163.351 220.131 163.586C220.618 164.359 218.346 164.477 218.514 165.263L218.44 164.7Z" fill="#EC9000"/>
<path d="M221.165 162.7C220.966 163.576 219.647 163.68 219.08 163.897C218.857 163.99 218.708 164.014 218.708 164.014C218.592 164.017 218.477 164.019 218.361 164.022C216.827 163.933 215.169 163.5 215.169 163.5L211.764 159.217C212.039 159.021 212.436 158.794 212.976 158.571C213.497 158.43 214.161 158.293 214.902 158.201C214.929 158.207 214.929 158.207 214.963 158.186C215.2 158.154 215.465 158.127 215.703 158.095C216.178 158.03 216.647 157.992 217.049 157.997C217.758 158.042 218.346 158.118 218.735 158.177C218.735 158.177 218.735 158.177 218.763 158.184L221.165 162.7Z" fill="#2A2D32"/>
<path d="M219.082 163.896C218.86 163.989 218.71 164.013 218.71 164.013C218.594 164.015 218.479 164.018 218.363 164.021C217.68 162.081 216.794 160.528 215.756 159.141C215.468 158.759 215.201 158.411 214.971 158.157C215.209 158.125 215.474 158.099 215.711 158.066C215.914 158.314 216.181 158.662 216.475 159.016C217.486 160.397 218.35 161.917 219.082 163.896Z" fill="#3E4247"/>
<path d="M216.437 159.041C216.199 159.074 215.983 159.14 215.718 159.166C215.657 159.181 215.602 159.169 215.541 159.184C213.634 159.471 211.965 159.467 211.735 159.214C211.735 159.214 211.735 159.214 211.707 159.208C211.602 159.04 212.087 158.804 212.946 158.567C213.468 158.426 214.132 158.289 214.872 158.198C214.9 158.204 214.9 158.204 214.933 158.183C215.171 158.15 215.436 158.124 215.673 158.091C216.149 158.026 216.618 157.989 217.02 157.993C217.918 157.967 218.566 158.027 218.706 158.174C218.881 158.415 217.909 158.77 216.437 159.041Z" fill="#1A1C1F"/>
<path d="M261.149 80.1494C258.881 80.1987 256.726 78.017 256.924 76.3083C257.51 74.1978 259.638 71.9161 261.933 72.1969C263.886 72.8032 264.238 73.1123 264.231 75.7946C264.226 77.4711 263.081 79.8225 261.149 80.1494Z" fill="#9BA5D6"/>
<path d="M261.845 79.5663C259.571 79.5913 257.163 78.0652 256.961 75.7959C257.536 73.7339 259.654 71.5199 261.957 71.8185C263.918 72.4327 264.272 72.7391 264.282 75.3674C264.287 77.0101 263.779 79.2658 261.845 79.5663Z" fill="white"/>
<path d="M259.553 73.8708C257.374 75.0632 257.454 75.2761 256.958 75.8082C257.365 73.029 259.501 70.6413 261.949 71.075C263.041 71.3164 264.085 72.7727 264.171 73.6114C263.454 73.3014 262.743 72.8254 261.949 72.9709C261.112 73.1243 260.841 73.1663 259.553 73.8708Z" fill="#8F9BD0"/>
<path d="M258.855 74.4712C258.272 74.8208 257.653 75.5527 257.141 76.0549C257.049 76.1369 256.933 76.1553 256.853 76.0549C256.806 75.9326 256.823 75.7665 256.9 75.6756C257.404 74.7712 258.287 74.0154 258.855 73.5723C259.518 73.0538 259.997 72.8239 260.695 72.6718C262.075 72.3712 263.1 72.4741 264.242 72.9002C264.451 72.9129 264.617 73.2734 264.599 73.5749C264.586 73.8925 264.367 74.1181 264.17 74.098C262.992 73.5749 262.345 73.3613 261.155 73.5713C260.457 73.6945 259.414 74.0913 258.855 74.4712Z" fill="#1E2133"/>
<path d="M261.827 77.6216C261.124 77.5469 260.614 76.9163 260.689 76.213C260.763 75.5098 261.394 75.0002 262.097 75.0749C262.801 75.1496 263.31 75.7802 263.235 76.4834C263.161 77.1867 262.53 77.6962 261.827 77.6216Z" fill="#1E2133"/>
<path d="M262.653 75.9662C262.378 75.8119 262.28 75.4638 262.435 75.1886C262.589 74.9135 262.937 74.8155 263.212 74.9698C263.487 75.1241 263.585 75.4722 263.431 75.7474C263.277 76.0225 262.929 76.1205 262.653 75.9662Z" fill="white"/>
<path d="M261.852 65.5444C260.427 65.9126 261.147 67.091 261.147 67.091C261.309 67.4392 262.008 67.0883 262.834 67.0331C262.867 67.0309 262.624 65.6071 262.499 65.4891C262.284 65.4734 262.067 65.4891 261.852 65.5444Z" fill="#8F9BD0"/>
<path d="M261.069 66.2963C261.069 66.2963 260.469 65.0557 261.844 64.8331C262.993 64.647 263.683 65.477 263.95 66.2058C264.217 66.9347 263.774 67.457 263.356 66.869C262.446 65.5893 261.282 66.7925 261.069 66.2963Z" fill="#1E2133"/>
<path d="M918.464 68.2559C914.687 78.132 908.846 93.0667 909.294 104.546C909.42 107.106 907.151 109.039 904.646 108.734C894.573 107.408 873.69 91.4714 858.481 95.2483C856.027 95.8601 853.473 94.37 852.78 91.889C852.408 90.325 852.036 88.7611 851.664 87.1972C850.999 84.366 850.335 81.5348 849.59 78.6764C848.738 75.3327 847.806 71.9617 846.793 68.5636C845.86 65.4621 844.846 62.3334 843.617 59.3117C843.189 58.1787 842.654 57.0993 842.118 56.0198C841.637 55.0483 839.838 52.914 842.128 53.0561C847.758 53.4245 853.36 54.1431 858.935 54.9424C864.509 55.7418 870.138 56.6491 875.685 57.5291C875.847 57.5836 876.035 57.5572 876.197 57.6116C879.59 58.2153 882.929 58.7111 886.322 59.3148C889.473 59.8369 892.623 60.359 895.774 60.881C898.494 61.3479 901.214 61.8147 903.933 62.2815C905.98 62.6114 908.107 62.9685 910.154 63.2985C911.366 63.4371 912.632 63.6836 913.871 63.7415C914.06 63.7152 914.302 63.7968 914.49 63.7705C917.214 63.1596 919.388 65.7801 918.464 68.2559Z" fill="#B1B3E9"/>
<path opacity="0.5" d="M904.565 108.71C907.07 109.014 909.339 107.082 909.213 104.522C909.141 101.8 909.339 98.8101 909.915 95.7674C906.522 95.1637 903.129 94.56 899.736 93.9563C892.68 92.748 885.679 91.6477 878.54 91.2205C877.301 91.1626 878.267 92.2974 878.535 92.8371C879.499 94.7801 880.327 96.8575 880.967 98.9611C890.277 102.817 899.071 107.938 904.565 108.71Z" fill="#9DA0D2"/>
<path d="M844.032 56.4861C850.301 59.2276 856.299 62.5071 862.189 65.8402C868.051 69.2539 873.752 72.8827 879.397 76.673L883.537 79.5963L884.559 80.3001L884.855 80.4896C884.935 80.5169 884.935 80.5169 885.016 80.5441C885.339 80.6529 885.15 80.6792 886.202 80.494C889.194 79.884 892.297 78.6815 895.399 77.4791C901.55 74.9662 907.649 72.076 913.909 69.2402C911.423 71.5493 908.668 73.5881 905.913 75.6269C903.105 77.5578 900.216 79.4615 897.166 81.0413C894.089 82.7019 890.986 84.1737 887.345 85.105C886.86 85.2112 886.536 85.3718 885.701 85.45C884.973 85.4746 884.192 85.3912 883.546 85.1736C883.223 85.0648 882.9 84.956 882.524 84.7392C882.362 84.6848 882.228 84.5496 882.067 84.4952L881.771 84.3057L880.749 83.6018L876.582 80.7593C871.044 76.9155 865.506 73.0717 860.05 68.9856C854.512 65.1418 849.164 61.0022 844.032 56.4861Z" fill="#9DA0D2"/>
<path d="M925.946 104.764C923.8 110.334 920.513 118.757 920.788 125.143C920.838 126.598 919.568 127.699 918.194 127.506C912.512 126.76 900.793 117.777 892.245 119.932C890.87 120.278 889.445 119.438 889.018 118.035C887.261 111.509 886.18 104.043 883.048 97.8624C882.78 97.3227 881.76 96.08 883.053 96.2459C890.192 96.673 897.193 97.7734 904.249 98.9816C907.722 99.6125 911.277 100.271 914.75 100.902C917.281 101.395 921.211 102.808 923.718 102.305C925.201 101.905 926.409 103.391 925.946 104.764Z" fill="#B1B3E9"/>
<path d="M884.126 98.1357C887.677 99.6021 891.12 101.391 894.455 103.234C897.763 105.158 901.044 107.162 904.189 109.301L906.528 110.898L907.093 111.358L907.227 111.493C907.227 111.493 907.227 111.493 907.308 111.521C907.388 111.548 907.28 111.601 907.874 111.442C909.518 111.097 911.272 110.429 912.998 109.841C916.505 108.506 919.932 106.873 923.494 105.376C920.71 108.034 917.523 110.287 914.176 112.216C912.422 113.154 910.694 114.01 908.618 114.569C908.321 114.649 908.213 114.703 907.647 114.782C907.189 114.807 906.758 114.752 906.355 114.616C906.112 114.534 905.951 114.48 905.736 114.318C905.494 114.236 905.359 114.101 905.279 114.074L904.687 113.694L902.348 112.097C899.203 109.959 896.165 107.766 893.074 105.466C889.902 103.139 886.919 100.785 884.126 98.1357Z" fill="#9DA0D2"/>
<path d="M986.647 219.681C983.831 210.21 990.26 195.206 984.747 184.237C983.906 182.504 985.352 180.539 987.288 180.778C991.116 181.341 1000.6 184.385 1008.66 187.886C1021.65 193.601 1042.48 206.822 1051.17 207.617C1052.42 207.718 1053.53 208.507 1054.12 209.677C1057.06 215.745 1041.57 242.878 1041.28 245.116C1041.04 247.052 1039.09 248.321 1037.2 247.781L991.078 223.914C988.887 223.327 987.226 221.713 986.647 219.681Z" fill="#E2E1F0"/>
<path d="M991.683 191.604C994.196 194.09 996.708 196.577 999.135 199.019L1006.46 206.476C1008.88 208.918 1011.27 211.446 1013.74 213.802C1016.21 216.159 1018.68 218.516 1021.24 220.486L1019.7 219.907C1021.64 219.93 1024.1 219.572 1026.51 219.084C1028.93 218.596 1031.4 218.023 1033.86 217.449C1036.32 216.875 1038.87 216.346 1041.33 215.772C1043.88 215.243 1046.43 214.713 1049.06 214.443C1046.97 216.185 1044.67 217.493 1042.38 218.801C1040.08 220.109 1037.69 221.158 1035.22 222.162C1032.76 223.167 1030.25 224.041 1027.65 224.657C1024.98 225.228 1022.3 225.799 1019.07 225.544L1018.12 225.49L1017.52 224.965L1015.43 223.13L1013.48 221.254C1012.2 219.946 1011.01 218.682 1009.86 217.332C1007.52 214.719 1005.27 211.934 1003.15 209.107C1001.03 206.281 998.995 203.499 997.048 200.545C995.273 197.68 993.37 194.64 991.683 191.604Z" fill="#C0C3CC"/>
</svg>
