<svg width="24" height="24" viewBox="0 0 24 24" fill="none" xmlns="http://www.w3.org/2000/svg">
<path d="M12 24C18.6274 24 24 18.6274 24 12C24 5.37258 18.6274 0 12 0C5.37258 0 0 5.37258 0 12C0 18.6274 5.37258 24 12 24Z" fill="#FF9911"/>
<path d="M7.30444 18.8083C6.13931 18.8083 5.19141 17.8604 5.19141 16.6953C5.19141 15.5302 6.13931 14.5823 7.30444 14.5823C8.46956 14.5823 9.41747 15.5302 9.41747 16.6953C9.41747 17.8604 8.46961 18.8083 7.30444 18.8083Z" fill="#FCFCFC"/>
<path d="M11.7133 18.1851V17.7144C11.7133 14.718 9.28422 12.2889 6.28783 12.2889H5.81716C5.75983 12.2889 5.71338 12.2424 5.71338 12.1851V9.47097C5.71338 9.41364 5.75988 9.36719 5.81716 9.36719H6.28783C10.8979 9.36719 14.6351 13.1044 14.6351 17.7145V18.1851C14.6351 18.2425 14.5886 18.2889 14.5313 18.2889H11.8172C11.7598 18.2889 11.7133 18.2424 11.7133 18.1851Z" fill="#FCFCFC"/>
<path d="M16.9307 18.1838V17.7131C16.9307 11.8352 12.1657 7.0702 6.2878 7.0702H5.81713C5.7598 7.0702 5.71335 7.0237 5.71335 6.96642V4.25222C5.71335 4.19489 5.75985 4.14844 5.81713 4.14844H6.39158C9.98713 4.14844 13.3674 5.54859 15.9099 8.091C18.4523 10.6335 19.8524 14.0138 19.8524 17.6093V18.1838C19.8524 18.2411 19.8059 18.2876 19.7487 18.2876H17.0345C16.9772 18.2876 16.9307 18.2411 16.9307 18.1838Z" fill="#FCFCFC"/>
</svg>
