<svg width="17" height="18" viewBox="0 0 17 18" fill="none" xmlns="http://www.w3.org/2000/svg">
<path d="M16.5585 9.10294C16.5585 9.35613 16.498 9.59373 16.3969 9.80967C15.7219 11.9872 12.5617 11.8282 8.06661 11.9344C7.31507 11.952 7.74495 12.8395 8.00872 14.7875C8.18037 16.0545 7.3634 18 5.9902 18C3.72605 18 5.90413 16.214 3.90223 11.7975C2.83257 9.43768 0.441559 10.7595 0.441559 8.38916V2.99404C0.441559 2.07137 0.532165 1.18443 1.82985 1.03845C3.08777 0.896502 2.80488 0 4.61953 0H13.7023C14.6275 0 15.3801 0.753041 15.3801 1.67824C15.3801 2.0618 15.2457 2.41114 15.0287 2.69404C15.5421 2.98146 15.8945 3.52409 15.8945 4.1533C15.8945 4.53587 15.7606 4.8852 15.5442 5.16759C16.0591 5.45451 16.4125 5.99765 16.4125 6.62787C16.4125 7.08543 16.2272 7.50021 15.9287 7.80374C16.3098 8.1113 16.5585 8.57642 16.5585 9.10294Z" fill="#FFDB5E"/>
<path d="M10.5521 7.4247H14.8831C15.4721 7.4247 16.0248 7.73981 16.3258 8.24671C16.4496 8.45561 16.3806 8.72592 16.1712 8.85025C15.9623 8.97458 15.692 8.90461 15.5677 8.69571C15.4252 8.4546 15.162 8.3056 14.8826 8.3056H10.4479C10.0085 8.3056 9.65108 8.66299 9.65108 9.10244C9.65108 9.54188 10.0085 9.89927 10.4479 9.89927H13.4113C13.6544 9.89927 13.8517 10.0966 13.8517 10.3397C13.8517 10.5828 13.6544 10.7802 13.4113 10.7802H10.4474C9.52222 10.7802 8.76968 10.0276 8.76968 9.10244C8.76968 8.58648 9.00878 8.12993 9.37624 7.82186C9.06667 7.51732 8.87388 7.09449 8.87388 6.62737C8.87388 6.1099 9.11449 5.65184 9.48397 5.34428C9.17641 5.04024 8.98563 4.61892 8.98563 4.1528C8.98563 3.58903 9.26701 3.0917 9.69488 2.78716C9.43111 2.49067 9.26601 2.10459 9.26601 1.67773C9.26601 0.752538 10.0185 0 10.9437 0H13.7042C14.2932 0 14.8464 0.314606 15.1474 0.8215C15.2717 1.0304 15.2027 1.30071 14.9939 1.42504C14.7844 1.54837 14.5141 1.48041 14.3903 1.27151C14.2469 1.0304 13.9836 0.880897 13.7042 0.880897H10.9437C10.5043 0.880897 10.1469 1.23829 10.1469 1.67773C10.1469 2.11717 10.5043 2.47457 10.9437 2.47457H14.2187C14.8076 2.47457 15.3613 2.78968 15.6618 3.29657C15.7862 3.50597 15.7172 3.77628 15.5083 3.90011C15.2974 4.02645 15.0281 3.95548 14.9048 3.74658C14.7593 3.50144 14.5026 3.35546 14.2187 3.35546H10.6634C10.2239 3.35546 9.86653 3.71336 9.86653 4.1528C9.86653 4.59224 10.2239 4.94964 10.6634 4.94964H14.7361C15.3251 4.94964 15.8783 5.26424 16.1793 5.77113C16.3036 5.98003 16.2347 6.25034 16.0258 6.37467C15.8159 6.4985 15.546 6.43005 15.4222 6.22115C15.2767 5.97651 15.02 5.83053 14.7361 5.83053H10.5521C10.1127 5.83053 9.75528 6.18792 9.75528 6.62737C9.75528 7.06681 10.1122 7.4247 10.5521 7.4247Z" fill="#EE9547"/>
</svg>
