<svg width="17" height="18" viewBox="0 0 17 18" fill="none" xmlns="http://www.w3.org/2000/svg">
<path d="M16.5585 8.89706C16.5585 8.64387 16.498 8.40628 16.3969 8.19033C15.7219 6.01275 12.5617 6.17182 8.06661 6.06561C7.31507 6.04799 7.74495 5.16055 8.00872 3.21251C8.18037 1.94552 7.3634 0 5.9902 0C3.72605 0 5.90413 1.78596 3.90223 6.20252C2.83257 8.56232 0.441559 7.24047 0.441559 9.61084V15.0065C0.441559 15.9291 0.532165 16.8161 1.82985 16.9621C3.08777 17.1035 2.80488 18 4.61953 18H13.7023C14.6275 18 15.3801 17.247 15.3801 16.3218C15.3801 15.9382 15.2457 15.5889 15.0287 15.306C15.5421 15.0185 15.8945 14.4759 15.8945 13.8467C15.8945 13.4641 15.7606 13.1148 15.5442 12.8324C16.0591 12.5455 16.4125 12.0023 16.4125 11.3721C16.4125 10.9146 16.2272 10.4998 15.9287 10.1963C16.3098 9.8887 16.5585 9.42359 16.5585 8.89706Z" fill="#FFDB5E"/>
<path d="M10.5482 10.5742H14.8792C15.4681 10.5742 16.0208 10.2591 16.3219 9.75221C16.4457 9.54331 16.3767 9.273 16.1673 9.14867C15.9584 9.02434 15.6881 9.09431 15.5638 9.3032C15.4213 9.54432 15.1581 9.69332 14.8787 9.69332H10.444C10.0046 9.69332 9.64718 9.33592 9.64718 8.89648C9.64718 8.45704 10.0046 8.09965 10.444 8.09965H13.4074C13.6505 8.09965 13.8478 7.90233 13.8478 7.6592C13.8478 7.41607 13.6505 7.21875 13.4074 7.21875H10.4435C9.51832 7.21875 8.76578 7.97129 8.76578 8.89648C8.76578 9.41244 9.00488 9.86899 9.37234 10.1771C9.06277 10.4816 8.86998 10.9044 8.86998 11.3716C8.86998 11.889 9.11059 12.3471 9.48006 12.6546C9.1725 12.9587 8.98172 13.38 8.98172 13.8461C8.98172 14.4099 9.26311 14.9072 9.69097 15.2118C9.42721 15.5082 9.2621 15.8943 9.2621 16.3212C9.2621 17.2464 10.0146 17.9989 10.9398 17.9989H13.7003C14.2893 17.9989 14.8425 17.6843 15.1435 17.1774C15.2678 16.9685 15.1988 16.6982 14.9899 16.5739C14.7805 16.4506 14.5102 16.5185 14.3864 16.7274C14.2429 16.9685 13.9797 17.118 13.7003 17.118H10.9398C10.5004 17.118 10.143 16.7606 10.143 16.3212C10.143 15.8817 10.5004 15.5244 10.9398 15.5244H14.2148C14.8037 15.5244 15.3574 15.2092 15.6579 14.7023C15.7822 14.4929 15.7133 14.2226 15.5044 14.0988C15.2935 13.9725 15.0242 14.0434 14.9008 14.2523C14.7554 14.4975 14.4987 14.6435 14.2148 14.6435H10.6595C10.22 14.6435 9.86262 14.2856 9.86262 13.8461C9.86262 13.4067 10.22 13.0493 10.6595 13.0493H14.7322C15.3212 13.0493 15.8744 12.7347 16.1754 12.2278C16.2997 12.0189 16.2308 11.7486 16.0219 11.6242C15.8119 11.5004 15.5421 11.5689 15.4183 11.7778C15.2728 12.0224 15.0161 12.1684 14.7322 12.1684H10.5482C10.1088 12.1684 9.75138 11.811 9.75138 11.3716C9.75138 10.9321 10.1083 10.5742 10.5482 10.5742Z" fill="#EE9547"/>
</svg>
