<svg width="24" height="24" viewBox="0 0 24 24" fill="none" xmlns="http://www.w3.org/2000/svg">
<path d="M12 24C18.6274 24 24 18.6274 24 12C24 5.37258 18.6274 0 12 0C5.37258 0 0 5.37258 0 12C0 18.6274 5.37258 24 12 24Z" fill="#00ACED"/>
<path d="M11.7689 9.72422L11.8036 10.3298L11.2256 10.2556C9.12147 9.97138 7.28329 9.00746 5.72257 7.38857L4.95955 6.5853L4.76302 7.17848C4.34683 8.50078 4.61273 9.89723 5.47979 10.8364C5.94223 11.3555 5.83818 11.4296 5.04048 11.1207C4.76302 11.0218 4.52024 10.9477 4.49712 10.9847C4.41619 11.0712 4.69365 12.1958 4.91331 12.6407C5.21389 13.2586 5.82662 13.8641 6.49715 14.2225L7.06363 14.5067L6.3931 14.5191C5.74569 14.5191 5.72257 14.5315 5.79194 14.791C6.02315 15.5942 6.93646 16.4469 7.95382 16.8177L8.6706 17.0772L8.04631 17.4727C7.12144 18.0411 6.03472 18.3624 4.94799 18.3871C4.42775 18.3995 4 18.4489 4 18.486C4 18.6096 5.41043 19.3016 6.23125 19.5735C8.69372 20.3768 11.6186 20.0307 13.8152 18.659C15.3759 17.6827 16.9366 15.7425 17.665 13.8641C18.058 12.8631 18.4511 11.0342 18.4511 10.1567C18.4511 9.58828 18.4858 9.51413 19.1332 8.83445C19.5147 8.43899 19.8731 8.00646 19.9425 7.88288C20.0581 7.64808 20.0465 7.64808 19.4569 7.85817C18.4742 8.22891 18.3355 8.17948 18.8211 7.62337C19.1794 7.22791 19.6072 6.51115 19.6072 6.30107C19.6072 6.26399 19.4338 6.32578 19.2372 6.437C19.0291 6.56058 18.5667 6.74595 18.2199 6.85718L17.5956 7.06726L17.0291 6.65945C16.717 6.437 16.2777 6.18985 16.0464 6.1157C15.4568 5.94269 14.5551 5.9674 14.0233 6.16513C12.5782 6.72124 11.6649 8.15476 11.7689 9.72422Z" fill="white"/>
</svg>
