<svg width="24" height="24" viewBox="0 0 24 24" fill="none" xmlns="http://www.w3.org/2000/svg">
<path d="M12 24C18.6274 24 24 18.6274 24 12C24 5.37258 18.6274 0 12 0C5.37258 0 0 5.37258 0 12C0 18.6274 5.37258 24 12 24Z" fill="#25D366"/>
<path fill-rule="evenodd" clip-rule="evenodd" d="M12.3955 18.6762H12.3926C11.1984 18.6757 10.0249 18.3761 8.98269 17.8076L5.20001 18.7999L6.21232 15.1023C5.58788 14.0202 5.2593 12.7926 5.25984 11.535C5.2614 7.60075 8.46242 4.3999 12.3955 4.3999C14.3043 4.40073 16.0959 5.14384 17.4431 6.49261C18.7903 7.84131 19.5318 9.63407 19.5311 11.5407C19.5295 15.474 16.3298 18.6746 12.3955 18.6762ZM9.15795 16.5158L9.37451 16.6444C10.2851 17.1847 11.3289 17.4707 12.3931 17.4711H12.3955C15.6644 17.4711 18.325 14.8105 18.3263 11.5402C18.3269 9.95551 17.7106 8.46544 16.5908 7.3444C15.4711 6.22335 13.982 5.60567 12.3979 5.60512C9.12647 5.60512 6.4659 8.26546 6.4646 11.5354C6.46414 12.6561 6.7777 13.7475 7.37138 14.6917L7.5124 14.9161L6.91325 17.1047L9.15795 16.5158ZM15.7462 13.0769C15.8706 13.137 15.9545 13.1776 15.9904 13.2375C16.035 13.3118 16.035 13.6688 15.8865 14.0853C15.7378 14.5018 15.0255 14.8819 14.683 14.9331C14.3758 14.979 13.9871 14.9981 13.56 14.8624C13.301 14.7803 12.9689 14.6706 12.5436 14.4868C10.8721 13.7651 9.74253 12.1451 9.52904 11.8389C9.51408 11.8175 9.50362 11.8025 9.49779 11.7947L9.49635 11.7928C9.40199 11.6669 8.76977 10.8233 8.76977 9.95029C8.76977 9.12902 9.17319 8.69855 9.35888 8.50041C9.37161 8.48683 9.38331 8.47435 9.39378 8.4629C9.55721 8.2844 9.75038 8.23978 9.86923 8.23978C9.98808 8.23978 10.1071 8.24088 10.211 8.24609C10.2238 8.24674 10.2371 8.24666 10.2509 8.24658C10.3548 8.24597 10.4843 8.24521 10.6121 8.55215C10.6613 8.67027 10.7332 8.84538 10.809 9.03007C10.9625 9.40358 11.132 9.81628 11.1618 9.876C11.2064 9.96525 11.2361 10.0693 11.1767 10.1884C11.1678 10.2062 11.1595 10.2231 11.1516 10.2392C11.107 10.3303 11.0741 10.3973 10.9984 10.4858C10.9686 10.5206 10.9378 10.5581 10.907 10.5956C10.8457 10.6703 10.7843 10.745 10.7309 10.7982C10.6417 10.8871 10.5488 10.9835 10.6528 11.162C10.7568 11.3405 11.1146 11.9244 11.6446 12.3971C12.2144 12.9053 12.7096 13.1201 12.9606 13.229C13.0096 13.2503 13.0493 13.2675 13.0784 13.2821C13.2567 13.3714 13.3607 13.3564 13.4647 13.2375C13.5687 13.1185 13.9104 12.7168 14.0292 12.5384C14.1481 12.3599 14.267 12.3897 14.4304 12.4491C14.5938 12.5087 15.4704 12.94 15.6487 13.0292C15.6835 13.0466 15.7161 13.0624 15.7462 13.0769Z" fill="#FDFDFD"/>
</svg>
