<svg width="18" height="18" viewBox="0 0 18 18" fill="none" xmlns="http://www.w3.org/2000/svg">
<path d="M18 9C18 13.9705 13.9705 18 9 18C4.0295 18 0 13.9705 0 9C0 4.0295 4.0295 0 9 0C13.9705 0 18 4.0295 18 9Z" fill="#FFCC4D"/>
<path d="M9 15C10.1046 15 11 13.8807 11 12.5C11 11.1193 10.1046 10 9 10C7.89543 10 7 11.1193 7 12.5C7 13.8807 7.89543 15 9 15Z" fill="#664500"/>
<path d="M6 8.5C6.69036 8.5 7.25 7.7165 7.25 6.75C7.25 5.7835 6.69036 5 6 5C5.30964 5 4.75 5.7835 4.75 6.75C4.75 7.7165 5.30964 8.5 6 8.5Z" fill="#664500"/>
<path d="M12 8.5C12.6904 8.5 13.25 7.7165 13.25 6.75C13.25 5.7835 12.6904 5 12 5C11.3096 5 10.75 5.7835 10.75 6.75C10.75 7.7165 11.3096 8.5 12 8.5Z" fill="#664500"/>
</svg>
