<svg width="14" height="15" viewBox="0 0 14 15" fill="none" xmlns="http://www.w3.org/2000/svg">
<path fill-rule="evenodd" clip-rule="evenodd" d="M10.5945 3.18717C11.0571 3.18717 11.4427 3.57274 11.4427 4.03543C11.4427 4.49812 11.0571 4.88369 10.5945 4.88369C10.1318 4.88369 9.7462 4.49812 9.7462 4.03543C9.7462 3.57274 10.1318 3.18717 10.5945 3.18717ZM6.97008 4.11254C8.89794 4.11254 10.4402 5.65483 10.4402 7.58269C10.4402 9.51055 8.89794 11.0528 6.97008 11.0528C5.04222 11.0528 3.49993 9.51055 3.49993 7.58269C3.49993 5.65483 5.04222 4.11254 6.97008 4.11254ZM6.97008 5.88618C6.04471 5.88618 5.27357 6.65732 5.27357 7.58269C5.27357 8.50807 6.04471 9.27921 6.97008 9.27921C7.89546 9.27921 8.6666 8.50807 8.6666 7.58269C8.6666 6.65732 7.89546 5.88618 6.97008 5.88618ZM10.4402 14.523H3.49993C1.7263 14.523 0.0297852 12.8265 0.0297852 11.0528V4.11254C0.0297852 2.33891 1.7263 0.642395 3.49993 0.642395H10.4402C12.2139 0.642395 13.9104 2.33891 13.9104 4.11254V11.0528C13.9104 12.8265 12.2139 14.523 10.4402 14.523ZM3.49993 2.33891C2.65168 2.33891 1.80342 3.26429 1.80342 4.03543V10.9757C1.80342 11.824 2.72879 12.6722 3.49993 12.6722H10.4402C11.2885 12.6722 12.1368 11.7469 12.1368 10.9757V4.03543C12.1368 3.18717 11.2114 2.33891 10.4402 2.33891H3.49993Z" fill="white"/>
</svg>
