<svg width="14" height="15" viewBox="0 0 14 15" fill="none" xmlns="http://www.w3.org/2000/svg">
<path d="M13.8806 13.4402C13.8806 14.206 13.2508 14.8282 12.4837 14.8282H1.39694C0.629835 14.8282 0 14.206 0 13.4402V2.33569C0 1.56987 0.629835 0.947632 1.39694 0.947632H12.4837C13.2588 0.947632 13.8806 1.56987 13.8806 2.33569V13.4402Z" fill="white"/>
<path d="M4.51397 4.33793C4.51397 4.84848 4.13446 5.2633 3.50462 5.2633C2.91516 5.2633 2.53564 4.84848 2.53564 4.33793C2.53564 3.8194 2.93131 3.42053 3.53692 3.42053C4.13446 3.42053 4.5059 3.8194 4.51397 4.33793ZM2.58409 11.9324V5.98924H4.44937V11.9244H2.58409V11.9324Z" fill="#37364D"/>
<path d="M5.57286 7.88794C5.57286 7.14605 5.54864 6.53179 5.52441 5.99731H7.14745L7.23627 6.81898H7.26857C7.51082 6.42809 8.11643 5.86169 9.12578 5.86169C10.3531 5.86169 11.2737 6.67538 11.2737 8.42243V11.9325H9.4084V8.63781C9.4084 7.87199 9.14193 7.35346 8.46364 7.35346C7.94686 7.35346 7.64001 7.70446 7.50274 8.04749C7.45429 8.16715 7.43814 8.34265 7.43814 8.51018V11.9325H5.57286V7.88794Z" fill="#37364D"/>
</svg>
