<svg width="183" height="36" viewBox="0 0 183 36" fill="none" xmlns="http://www.w3.org/2000/svg">
<g clip-path="url(#clip0_1_85)">
<path fill-rule="evenodd" clip-rule="evenodd" d="M1.93497 12.8363C13.1601 8.80295 24.3853 4.81826 35.6105 0.784972C39.3037 -0.575656 42.0735 1.46529 41.0044 5.35279L32.3062 33.1971C31.6744 35.8698 28.9531 36.5014 26.4748 34.3148L23.0733 31.7392L16.7561 26.9771L11.265 30.7674C11.265 30.7674 9.02968 31.8364 9.02968 29.3581V20.6599L29.6821 10.8439L16.9991 21.9718L27.9812 30.0384L36.0964 4.76967L6.06545 15.0229L10.5847 17.3555L6.25982 19.3964L1.20606 16.6751C-0.883474 15.5089 -0.0087845 13.5652 1.93497 12.8363Z" fill="#4C70F0"/>
<path fill-rule="evenodd" clip-rule="evenodd" d="M16.7093 26.9769L14.2797 28.6777L11.1211 22.7007L16.7093 26.9769Z" fill="#2B3C89"/>
<path fill-rule="evenodd" clip-rule="evenodd" d="M85.5523 20.9076C85.5523 21.1636 85.5523 21.4707 85.5011 21.8802H74.3419C74.5466 22.9041 75.0585 23.7742 75.8775 24.3885C76.6966 25.0027 77.7204 25.3099 78.9489 25.3099C80.5358 25.3099 81.8155 24.798 82.788 23.7742L84.5797 25.8217C83.9654 26.5896 83.1464 27.1527 82.1738 27.5622C81.2012 27.9717 80.075 28.1253 78.8465 28.1253C77.2597 28.1253 75.9287 27.8182 74.7002 27.2039C73.5229 26.5896 72.6015 25.7194 71.9359 24.5932C71.2705 23.4671 70.9634 22.2385 70.9634 20.8053C70.9634 19.4232 71.2705 18.1946 71.8848 17.0685C72.4991 15.9423 73.3693 15.0721 74.4954 14.4579C75.6216 13.8435 76.9014 13.5364 78.2834 13.5364C79.6655 13.5364 80.8941 13.8435 82.0202 14.4579C83.0952 15.0721 83.9654 15.9423 84.5797 17.0173C85.2452 18.1946 85.5523 19.4744 85.5523 20.9076ZM78.3858 16.2495C77.3109 16.2495 76.4406 16.5566 75.6727 17.1708C74.9561 17.7851 74.4954 18.6553 74.3419 19.6791H82.4297C82.2762 18.6553 81.8667 17.8363 81.0989 17.1708C80.3821 16.5566 79.4607 16.2495 78.3858 16.2495Z" fill="white"/>
<path fill-rule="evenodd" clip-rule="evenodd" d="M109.453 20.9076C109.453 21.1636 109.453 21.4707 109.402 21.8802H98.2427C98.4475 22.9041 98.9594 23.7742 99.7784 24.3885C100.597 25.0027 101.621 25.3099 102.85 25.3099C104.437 25.3099 105.716 24.798 106.689 23.7742L108.48 25.8217C107.866 26.5896 107.047 27.1527 106.075 27.5622C105.102 27.9717 103.976 28.1253 102.747 28.1253C101.161 28.1253 99.8296 27.8182 98.6011 27.2039C97.4237 26.5896 96.5024 25.7194 95.8369 24.5932C95.1714 23.4671 94.8643 22.2385 94.8643 20.8053C94.8643 19.4232 95.1714 18.1946 95.7856 17.0685C96.4 15.9423 97.2702 15.0721 98.3963 14.4579C99.5224 13.8435 100.751 13.5364 102.184 13.5364C103.566 13.5364 104.795 13.8435 105.921 14.4579C106.996 15.0721 107.866 15.9423 108.48 17.0173C109.146 18.1946 109.453 19.4744 109.453 20.9076ZM102.287 16.2495C101.212 16.2495 100.342 16.5566 99.5736 17.1708C98.857 17.7851 98.3963 18.6553 98.2427 19.6791H106.331C106.177 18.6553 105.768 17.8363 105.051 17.1708C104.283 16.5566 103.362 16.2495 102.287 16.2495Z" fill="white"/>
<path fill-rule="evenodd" clip-rule="evenodd" d="M114.267 15.8397C115.241 14.3553 116.929 13.5874 119.336 13.5874V16.6587C119.028 16.6587 118.772 16.6587 118.567 16.6587C117.288 16.6587 116.264 17.017 115.548 17.7848C114.831 18.5528 114.472 19.6277 114.472 21.061V27.9715H111.094V13.7409H114.267V15.8397Z" fill="white"/>
<path fill-rule="evenodd" clip-rule="evenodd" d="M132.848 11.5911C132.234 11.5911 131.722 11.3863 131.312 10.9768C130.903 10.5673 130.698 10.0554 130.698 9.49234C130.698 8.87808 130.903 8.41737 131.312 8.00786C131.722 7.59835 132.234 7.3936 132.848 7.3936C133.462 7.3936 133.974 7.59836 134.384 7.95669C134.793 8.31501 134.998 8.8269 134.998 9.38997C134.998 10.0042 134.793 10.5161 134.384 10.9256C133.974 11.3863 133.462 11.5911 132.848 11.5911Z" fill="white"/>
<path fill-rule="evenodd" clip-rule="evenodd" d="M131.161 13.7411H134.487V27.9716H131.161V13.7411Z" fill="white"/>
<path fill-rule="evenodd" clip-rule="evenodd" d="M163.407 20.9076C163.407 21.1636 163.407 21.4707 163.357 21.8802H152.197C152.401 22.9041 152.913 23.7742 153.732 24.3885C154.551 25.0027 155.575 25.3099 156.804 25.3099C158.391 25.3099 159.67 24.798 160.643 23.7742L162.435 25.8217C161.821 26.5896 161.001 27.1527 160.029 27.5622C159.056 27.9717 157.93 28.1253 156.701 28.1253C155.115 28.1253 153.784 27.8182 152.556 27.2039C151.378 26.5896 150.456 25.7194 149.791 24.5932C149.125 23.4671 148.818 22.2385 148.818 20.8053C148.818 19.4232 149.125 18.1946 149.74 17.0685C150.354 15.9423 151.225 15.0721 152.351 14.4579C153.477 13.8435 154.705 13.5364 156.139 13.5364C157.52 13.5364 158.749 13.8435 159.875 14.4579C160.95 15.0721 161.821 15.9423 162.435 17.0173C163.1 18.1946 163.407 19.4744 163.407 20.9076ZM156.189 16.2495C155.115 16.2495 154.244 16.5566 153.477 17.1708C152.76 17.7851 152.299 18.6553 152.146 19.6791H160.234C160.08 18.6553 159.67 17.8363 158.953 17.1708C158.186 16.5566 157.265 16.2495 156.189 16.2495Z" fill="white"/>
<path fill-rule="evenodd" clip-rule="evenodd" d="M168.372 15.8397C169.345 14.3553 171.034 13.5874 173.44 13.5874V16.7611C173.133 16.7099 172.876 16.6587 172.672 16.6587C171.392 16.6587 170.369 17.017 169.652 17.7848C168.935 18.5528 168.577 19.6277 168.577 21.061V27.9715H165.25V13.7409H168.424V15.8397H168.372Z" fill="white"/>
<path fill-rule="evenodd" clip-rule="evenodd" d="M95.7889 10.7211C95.7377 10.7211 92.4616 10.7211 92.3592 10.7211C91.1307 10.8235 90.4652 11.5401 90.4652 13.0246V13.8948H94.3044V16.5567H90.6188V28.0229H87.2915V22.9552V16.5055V13.8436V13.4853V12.9734C87.2915 11.4378 87.7522 10.2604 88.6224 9.33902C89.4927 8.46881 90.7724 8.0081 92.3592 8.0081C92.4104 8.0081 95.7377 8.0081 95.7889 8.0081V10.7211Z" fill="white"/>
<path fill-rule="evenodd" clip-rule="evenodd" d="M65.5849 21.9825C65.8409 21.8801 66.0968 21.8801 66.3015 21.7778C67.4789 21.2659 68.4002 20.4981 69.0657 19.4743C69.68 18.4505 70.0384 17.2731 70.0384 15.9423C70.0384 14.5601 69.7312 13.3828 69.0657 12.4102C68.4002 11.4377 67.53 10.6698 66.3015 10.1067C65.1241 9.59483 63.6909 9.28769 62.0529 9.28769H54.3745V27.9205H57.8554V12.2055H61.8993C63.4349 12.2055 64.5611 12.5126 65.329 13.178C66.0968 13.7923 66.5063 14.7137 66.5063 15.9423C66.5063 17.1196 66.0968 18.041 65.329 18.7064C64.5611 19.3208 63.3837 19.6791 61.8993 19.6791H59.5446L66.3015 27.9717H70.4478L65.5849 21.9825Z" fill="white"/>
<path fill-rule="evenodd" clip-rule="evenodd" d="M124.298 15.8397C125.27 14.3553 126.96 13.5874 129.365 13.5874V16.6587C129.058 16.6587 128.803 16.6587 128.598 16.6587C127.318 16.6587 126.294 17.017 125.577 17.7848C124.861 18.5528 124.503 19.6277 124.503 21.061V27.9715H121.175V13.7409H124.349V15.8397H124.298Z" fill="white"/>
<path fill-rule="evenodd" clip-rule="evenodd" d="M174.723 8.57119H173.494V8.0081H176.616V8.57119H175.388V11.6938H174.723V8.57119Z" fill="white"/>
<path fill-rule="evenodd" clip-rule="evenodd" d="M180.812 11.6938L180.76 9.23665L179.583 11.2841H179.276L178.048 9.28782V11.6938H177.434V8.0081H177.996L179.429 10.4652L180.863 8.0081H181.426V11.6938H180.812Z" fill="white"/>
<path fill-rule="evenodd" clip-rule="evenodd" d="M148.564 25.3098V27.9716H136.279V25.8728L144.11 16.4029H136.432V13.7411H148.359V15.8398L140.527 25.3098H148.564Z" fill="white"/>
</g>
<defs>
<clipPath id="clip0_1_85">
<rect width="182.25" height="36" fill="white"/>
</clipPath>
</defs>
</svg>
