<svg width="14" height="12" viewBox="0 0 14 12" fill="none" xmlns="http://www.w3.org/2000/svg">
<path d="M6.75447 3.54067L6.78456 4.03682L6.28308 3.97607C4.45772 3.74318 2.86303 2.9534 1.50904 1.62697L0.847097 0.96882L0.676595 1.45484C0.315533 2.53826 0.546212 3.68243 1.29842 4.45196C1.6996 4.87723 1.60934 4.93798 0.917303 4.68484C0.676595 4.60384 0.465976 4.54309 0.445917 4.57347C0.37571 4.64434 0.616418 5.56576 0.806979 5.93027C1.06775 6.43654 1.59931 6.93269 2.18102 7.22632L2.67246 7.45921L2.09075 7.46933C1.5291 7.46933 1.50904 7.47946 1.56922 7.69209C1.76981 8.35024 2.56214 9.0489 3.44474 9.35266L4.06657 9.56529L3.52497 9.88931C2.72261 10.3551 1.77984 10.6183 0.837067 10.6386C0.38574 10.6487 0.0146484 10.6892 0.0146484 10.7196C0.0146484 10.8208 1.23825 11.3879 1.95034 11.6106C4.08662 12.2688 6.62409 11.9853 8.52969 10.8613C9.88367 10.0614 11.2377 8.47175 11.8695 6.93269C12.2105 6.11253 12.5515 4.61397 12.5515 3.89506C12.5515 3.42929 12.5816 3.36854 13.1433 2.81164C13.4742 2.48763 13.7851 2.13324 13.8453 2.03199C13.9456 1.83961 13.9356 1.83961 13.4241 2.01174C12.5716 2.3155 12.4512 2.275 12.8725 1.81935C13.1834 1.49534 13.5545 0.908068 13.5545 0.735936C13.5545 0.705559 13.404 0.756186 13.2335 0.847315C13.053 0.948569 12.6518 1.10045 12.3509 1.19158L11.8093 1.36371L11.3179 1.02957C11.0471 0.847315 10.666 0.644807 10.4654 0.584054C9.95388 0.442299 9.17158 0.46255 8.71022 0.624556C7.45653 1.0802 6.6642 2.25475 6.75447 3.54067Z" fill="white"/>
</svg>
