<svg width="14" height="11" viewBox="0 0 14 11" fill="none" xmlns="http://www.w3.org/2000/svg">
<path fill-rule="evenodd" clip-rule="evenodd" d="M12.4824 0.558813C13.0797 0.723495 13.55 1.20873 13.7097 1.82494C13.9997 2.94174 13.9997 5.27196 13.9997 5.27196C13.9997 5.27196 13.9997 7.6021 13.7097 8.71898C13.55 9.33519 13.0797 9.82042 12.4824 9.98519C11.4 10.2844 7.05944 10.2844 7.05944 10.2844C7.05944 10.2844 2.71883 10.2844 1.63638 9.98519C1.03912 9.82042 0.568762 9.33519 0.409135 8.71898C0.119141 7.6021 0.119141 5.27196 0.119141 5.27196C0.119141 5.27196 0.119141 2.94174 0.409135 1.82494C0.568762 1.20873 1.03912 0.723495 1.63638 0.558813C2.71883 0.259521 7.05944 0.259521 7.05944 0.259521C7.05944 0.259521 11.4 0.259521 12.4824 0.558813ZM5.75832 3.31067V7.66931L9.22847 5.49007L5.75832 3.31067Z" fill="white"/>
</svg>
